<svg width="1634" height="1003" viewBox="0 0 1634 1003" fill="none" xmlns="http://www.w3.org/2000/svg">
<rect width="1634" height="1003" fill="white"/>
<path d="M197 636V814H1438V636H197Z" fill="#E4C48B" stroke="black"/>
<path d="M727.427 714H773.465H816.501H860.037H903.573V781.5V814H860.037H816.501H773.465H727.427V781.5V714Z" fill="#E7DAAC"/>
<path d="M410.163 714H443.941H477.719V781.5V814H443.941H410.163V781.5V714Z" fill="#E7DAAC"/>
<path d="M214 714H243.775H273.549V781.5V814H243.775H214V781.5V714Z" fill="#E7DAAC"/>
<path d="M309.079 714H341.856H374.634V781.5V814H341.856H309.079V781.5V714Z" fill="#E7DAAC"/>
<path d="M506.743 714H541.272H575.801V781.5V814H541.272H506.743V781.5V714Z" fill="#E7DAAC"/>
<path d="M615.334 714H649.112H682.89V781.5V814H649.112H615.334V781.5V714Z" fill="#E7DAAC"/>
<path d="M951.113 714H985.641H1020.17V781.5V814H985.641H951.113V781.5V714Z" fill="#E7DAAC"/>
<path d="M1058.2 714H1092.73H1127.26V781.5V814H1092.73H1058.2V781.5V714Z" fill="#E7DAAC"/>
<path d="M1156.28 714H1188.56H1220.84V781.5V814H1188.56H1156.28V781.5V714Z" fill="#E7DAAC"/>
<path d="M1257.87 714H1290.65H1323.42V781.5V814H1290.65H1257.87V781.5V714Z" fill="#E7DAAC"/>
<path d="M1357.45 714H1387.23H1417V781.5V814H1387.23H1357.45V781.5V714Z" fill="#E7DAAC"/>
<path d="M727.427 814H773.465M727.427 814H903.573M727.427 814V781.5M903.573 714H860.037M903.573 714H773.465M903.573 714V781.5M903.573 814H860.037M903.573 814V781.5M773.465 714H727.427V781.5M773.465 714V814M773.465 714H816.501M773.465 814H816.501M816.501 714V814M816.501 714H860.037M816.501 814H860.037M860.037 714V814M443.941 714H410.163V781.5M443.941 714H477.719V781.5M443.941 714V814M243.775 714H214V781.5M243.775 714H273.549V781.5M243.775 714V814M243.775 814H273.549V781.5M243.775 814H214V781.5M341.856 714H309.079V781.5M341.856 714H374.634V781.5M341.856 714V814M341.856 814H374.634V781.5M341.856 814H309.079V781.5M443.941 814H477.719V781.5M443.941 814H410.163V781.5M541.272 714H506.743V781.5M541.272 714H575.801V781.5M541.272 714V814M541.272 814H575.801V781.5M541.272 814H506.743V781.5M649.112 714H615.334V781.5M649.112 714H682.89V781.5M649.112 714V814M649.112 814H682.89V781.5M649.112 814H615.334V781.5M985.641 714H951.113V781.5M985.641 714H1020.17V781.5M985.641 714V814M985.641 814H1020.17V781.5M985.641 814H951.113V781.5M1092.73 714H1058.2V781.5M1092.73 714H1127.26V781.5M1092.73 714V814M1092.73 814H1127.26V781.5M1092.73 814H1058.2V781.5M1188.56 714H1156.28V781.5M1188.56 714H1220.84V781.5M1188.56 714V814M1188.56 814H1220.84V781.5M1188.56 814H1156.28V781.5M1290.65 714H1257.87V781.5M1290.65 714H1323.42V781.5M1290.65 714V814M1290.65 814H1323.42V781.5M1290.65 814H1257.87V781.5M1387.23 714H1357.45V781.5M1387.23 714H1417V781.5M1387.23 714V814M1387.23 814H1357.45V781.5M1387.23 814H1417V781.5M214 781.5H273.549M309.079 781.5H374.634M410.163 781.5H477.719M506.743 781.5H575.801M615.334 781.5H682.89M727.427 781.5H903.573M951.113 781.5H1020.17M1058.2 781.5H1127.26M1156.28 781.5H1220.84M1257.87 781.5H1323.42M1357.45 781.5H1417" stroke="black"/>
<path d="M197 698V672H1438V698H197Z" fill="#399476" stroke="black"/>
<path d="M1439 698.038V813H1427H1349H1341H1243H1234.5H1144.5H1134.5H1046H1036V698.038H958H934.5V813H925.5V698.038H934.5V672H958V698.038H1036V672H1058V698.038H1046V813H1134.5V698.038V672H1155V698.038H1144.5V813H1234.5V698.038V672H1255L1255.75 698.038H1243V813H1341V698.038V672H1356.5V698.038H1349V813H1427V698.038H1439Z" fill="#9D4129"/>
<path d="M197 813V698.038H206V813H285.5V698.038H275V672H304.5V698.038H376.5V672H401.5V698.038H478V672H499V698.038V813H488.5V698.038H478H401.5V755.519V813H391.5V698.038H376.5H304.5H296V813H285.5H206H197Z" fill="#9D4129"/>
<path d="M587 813V698.038H578.5V672H602V698.038H594.5V813H700.5V698.038H682.5V672H700.5V698.038H709V813H700.5H594.5H587Z" fill="#9D4129"/>
<path d="M206 813H197V698.038H206V813ZM206 813H285.5M285.5 813V698.038H296V813H285.5ZM401.5 698.038H391.5V813H401.5V755.519V698.038ZM401.5 698.038V672H376.5V698.038M499 698.038H488.5V813H499V698.038ZM499 698.038V672H478V698.038M499 698.038H478M594.5 813H587V698.038H594.5V813ZM594.5 813H700.5M700.5 813V698.038M700.5 813H709V698.038H700.5M700.5 698.038V672H682.5V698.038H700.5ZM934.5 698.038H925.5V813H934.5V698.038ZM934.5 698.038V672H958V698.038M934.5 698.038H958M1036 698.038V813H1046M1036 698.038H1046M1036 698.038V672H1058V698.038M1036 698.038H1058M1046 698.038V813M1046 698.038H1058M1046 813H1134.5M1134.5 813V698.038M1134.5 813H1144.5M1134.5 698.038H1144.5V813M1134.5 698.038V672H1155V698.038H1134.5ZM1144.5 813H1234.5M1234.5 813V698.038M1234.5 813H1243M1234.5 698.038H1243V813M1234.5 698.038V672H1255L1255.75 698.038H1234.5ZM1243 813H1341M1341 813V698.038M1341 813H1349M1341 698.038H1349V813M1341 698.038V672H1356.5V698.038H1341ZM1349 813H1427M1427 813H1439V698.038H1427V813ZM304.5 698.038H275V672H304.5V698.038ZM304.5 698.038H376.5M376.5 698.038H478M958 698.038H1058M578.5 672H602V698.038H578.5V672Z" stroke="black"/>
<path d="M1438 672H197V636H1438V672Z" fill="#D79456" stroke="black"/>
<path d="M99 636V626H121L282 572.5H306L143.5 626H1444H1495L1340.5 572.5H1358L1516 626H1535V636H99Z" fill="#E7DAAC"/>
<path d="M121 626H99V636H1535V626H1516M121 626L282 572.5H306L143.5 626M121 626H143.5M143.5 626H1444H1495M1516 626L1358 572.5H1340.5L1495 626M1516 626H1495" stroke="black"/>
<path d="M1344.39 573H301.12L140.5 626H1494L1344.39 573Z" fill="#EEA545" stroke="black"/>
<path d="M279 571.639V519H296.639V571.639L1339.5 573V519H1357V573H1339.5L296.639 571.639H279Z" fill="#E7DAAC"/>
<path d="M296.639 571.639V519H279V571.639H296.639ZM296.639 571.639L1339.5 573M1339.5 573V519H1357V573H1339.5Z" stroke="black"/>
<path d="M278.5 557L221 519H278.5H296.5H1340H1356.5H1415L1356.5 557V519H1340V533.651H296.5V519H278.5V557Z" fill="#9D4129"/>
<path d="M278.5 519H221L278.5 557V519ZM278.5 519H296.5M1340 519H1356.5M1340 519V533.651H296.5V519M1340 519H296.5M1356.5 519H1415L1356.5 557V519Z" stroke="black"/>
<path d="M297 547V533H1339V547H297Z" fill="#D79456" stroke="black"/>
<path d="M297 573V547H1339V573H297Z" fill="#399476" stroke="black"/>
<path d="M381 573V547H399.989V573H381Z" fill="#9D4129"/>
<path d="M1257 547V573H1235.01V547H1257Z" fill="#9D4129"/>
<path d="M478.444 573V547H499.932V573H478.444Z" fill="#9D4129"/>
<path d="M580.886 573V547H604.872V573H580.886Z" fill="#9D4129"/>
<path d="M681.828 573V547H702.317V573H681.828Z" fill="#9D4129"/>
<path d="M934.684 573V547H954.673V573H934.684Z" fill="#9D4129"/>
<path d="M1033.13 573V547H1056.11V573H1033.13Z" fill="#9D4129"/>
<path d="M1157.06 573H1136.57V547H1157.06V573Z" fill="#9D4129"/>
<path d="M381 573V547H399.989V573H381Z" stroke="black"/>
<path d="M1257 547V573H1235.01V547H1257Z" stroke="black"/>
<path d="M478.444 573V547H499.932V573H478.444Z" stroke="black"/>
<path d="M580.886 573V547H604.872V573H580.886Z" stroke="black"/>
<path d="M681.828 573V547H702.317V573H681.828Z" stroke="black"/>
<path d="M934.684 573V547H954.673V573H934.684Z" stroke="black"/>
<path d="M1033.13 573V547H1056.11V573H1033.13Z" stroke="black"/>
<path d="M1157.06 573H1136.57V547H1157.06V573Z" stroke="black"/>
<path d="M221.5 518V508.5V493V478H234.5L242 493L235.75 504.7L250 500.9V486.5L256.5 478H265.5V496.767L278 493.433V478H288.5L292.5 483L291 489.967L304 486.5V478L311 469.5L317 478V480.373L327.5 475.424V469.5L337 463.5V470.946L346 466.704L352 458L364.25 458.102L382.5 449.5L447 405L476 377.5L517.5 331.5L536 308H1104L1121 331.5L1148.5 368.5L1184 405L1240 447L1274.04 463.5H1279L1283 467.841L1291.5 471.96L1296.5 466H1306.03V479L1321.5 486.5V479V471.96L1334.5 467.841V479L1329.5 491.5L1343 494.5L1349 479V471.96H1362L1357.5 498L1367.25 500.175V486.5L1372.5 471.96H1384V486.5L1377 502.349H1392V491.5V479L1401.5 471.96L1411.5 479L1414.5 481.5V508.5V518H221.5Z" fill="#EEA545"/>
<path d="M221.5 508.5V518H1414.5V508.5M221.5 508.5V493V478H234.5L242 493L235.75 504.7M221.5 508.5L235.75 504.7M1414.5 508.5H1349M1414.5 508.5V481.5L1411.5 479L1401.5 471.96L1392 479V491.5V502.349M1414.5 508.5L1392 502.349M1349 508.5H278L373.5 469.5L428.5 434L476 393.5L527 338.5L542.5 317.5H1093.5L1121 349L1156 393.5L1215 447L1291.5 486.5L1349 508.5ZM1321.5 486.5L1329.5 491.5M1321.5 486.5V479V471.96L1334.5 467.841V479L1329.5 491.5M1321.5 486.5L1306.03 479M304 486.5L291 489.967M304 486.5V478L311 469.5L317 478V480.373M304 486.5L317 480.373M265.5 496.767L250 500.9M265.5 496.767V478H256.5L250 486.5V500.9M265.5 496.767L278 493.433M250 500.9L235.75 504.7M278 493.433V478H288.5L292.5 483L291 489.967M278 493.433L291 489.967M317 480.373L327.5 475.424M327.5 475.424V469.5L337 463.5V470.946M327.5 475.424L337 470.946M337 470.946L346 466.704M346 466.704L352 458L364.25 458.102M346 466.704L364.25 458.102M364.25 458.102L382.5 449.5L447 405L476 377.5L517.5 331.5L536 308H1104L1121 331.5L1148.5 368.5L1184 405L1240 447L1274.04 463.5M1392 502.349H1377M1377 502.349L1367.25 500.175M1377 502.349L1384 486.5V471.96H1372.5L1367.25 486.5V500.175M1357.5 498L1362 471.96H1349V479L1343 494.5M1357.5 498L1343 494.5M1357.5 498L1367.25 500.175M1343 494.5L1329.5 491.5M1306.03 479V466H1296.5L1291.5 471.96M1306.03 479L1291.5 471.96M1291.5 471.96L1283 467.841M1283 467.841L1279 463.5H1274.04M1283 467.841L1274.04 463.5" stroke="black"/>
<path d="M367.5 456.5L361 451V443.5L372 441L383.5 428V433.5L394 427.25L404.5 421L417.357 411L431.179 400.25L445 389.5L458.204 377L470.352 365.5L482.5 354L493.052 342L500.526 333.5L508 325L519 309.5V283L526.5 273.5L519 254.5L526.5 249L535.5 273.5L560 267.5V261L565.5 249H576.5L585 261L581 276.5L576.5 289V296.5H591H607.5H623.5H638.5H655.5H672H687.5H703H718.5H736H752H769.5H787H803.5H819H834H850H866H879H892.5H908H923.5H938H953H968.5H984H1000.5H1013.5H1028.5H1044.25H1060V289L1054.5 276.5V261L1060 249H1073.5L1081 261V267.5L1105.5 273.5L1111 249L1119.5 254.5L1111 273.5L1119.5 283V309.5L1124 317.25L1128.5 325L1137.25 335.5L1146 346L1151.98 354L1159.82 364.5L1169.16 377L1178.5 389.5L1184.31 394.191L1191.5 400L1204.5 410.5L1217.5 421L1227.25 427.25L1237 433.5L1250.5 441V428L1265 441V448L1276.5 451L1265 456.5L1250.5 451L1237 443.5L1225.81 435.75L1214.61 428L1204.5 421L1200 418.047L1188.5 410.5L1178.25 400L1168 389.5L1159.99 380.396L1151.98 371.292L1146 364.5L1136.5 354L1128 342.5L1119.5 331L1115.25 324.473L1111 317.946L1105.5 309.5H1060H1044.25H1028.5H1013.5H1000.5H984H968.5H953H938H923.5H908H892.5H879H866H850H834H819H803.5H787H769.5H752H736H718.5H703H687.5H672H655.5H638.5H623.5H607.5H591H576.5H535.5L526.5 319.5L519 331L508 342.5L497 354L486.5 365.5L476 377L464 389.25L452 401.5L437.5 411.25L423 421L411.25 429.032L399.5 437.063L383.5 448L367.5 456.5Z" fill="#FBE29F"/>
<path d="M383.5 433.5V428L372 441L361 443.5V451L367.5 456.5L383.5 448M383.5 433.5V448M383.5 433.5L394 427.25M383.5 448L399.5 437.063M404.5 421L394 427.25M404.5 421L411.25 429.032M404.5 421L417.357 411M445 389.5L431.179 400.25M445 389.5L452 401.5M445 389.5L458.204 377M482.5 354L470.352 365.5M482.5 354L486.5 365.5M482.5 354L493.052 342M508 325L519 309.5M508 325L500.526 333.5M508 325L519 331M519 309.5L526.5 319.5M519 309.5V283L526.5 273.5L519 254.5L526.5 249L535.5 273.5L560 267.5V261L565.5 249H576.5L585 261L581 276.5L576.5 289V296.5M526.5 319.5L519 331M526.5 319.5L535.5 309.5H576.5M519 331L508 342.5M497 354L486.5 365.5M497 354L493.052 342M497 354L508 342.5M476 377L464 389.25M476 377L470.352 365.5M476 377L486.5 365.5M452 401.5L437.5 411.25M452 401.5L464 389.25M423 421L411.25 429.032M423 421L417.357 411M423 421L437.5 411.25M576.5 309.5V296.5M576.5 309.5H591M576.5 296.5H591M1060 296.5V309.5M1060 296.5V289L1054.5 276.5V261L1060 249H1073.5L1081 261V267.5L1105.5 273.5L1111 249L1119.5 254.5L1111 273.5L1119.5 283V309.5M1060 296.5H1044.25M1060 309.5H1105.5L1111 317.946M1060 309.5H1044.25M1119.5 309.5L1111 317.946M1119.5 309.5L1124 317.25M1128.5 325L1124 317.25M1128.5 325L1119.5 331M1128.5 325L1137.25 335.5M1146 346L1137.25 335.5M1146 346L1136.5 354M1146 346L1151.98 354M1178.5 389.5L1169.16 377M1178.5 389.5H1168M1178.5 389.5L1184.31 394.191M1217.5 421L1204.5 410.5M1217.5 421L1214.61 428M1217.5 421L1227.25 427.25M1237 433.5L1250.5 441M1237 433.5L1227.25 427.25M1237 433.5V443.5M1250.5 441V428L1265 441V448L1276.5 451L1265 456.5L1250.5 451M1250.5 441V451M1250.5 451L1237 443.5M1237 443.5L1225.81 435.75M1188.5 410.5L1178.25 400M1188.5 410.5L1191.5 400M1188.5 410.5L1200 418.047M1168 389.5L1159.99 380.396M1168 389.5L1178.25 400M1146 364.5L1136.5 354M1146 364.5L1151.98 354M1146 364.5L1151.98 371.292M1136.5 354L1128 342.5M1119.5 331L1115.25 324.473M1119.5 331L1128 342.5M394 427.25L399.5 437.063M399.5 437.063L411.25 429.032M417.357 411L431.179 400.25M431.179 400.25L437.5 411.25M458.204 377L464 389.25M458.204 377L470.352 365.5M493.052 342L500.526 333.5M500.526 333.5L508 342.5M591 296.5V309.5M591 296.5H607.5M591 309.5H607.5M607.5 296.5V309.5M607.5 296.5H623.5M607.5 309.5H623.5M623.5 296.5V309.5M623.5 296.5H638.5M623.5 309.5H638.5M638.5 296.5V309.5M638.5 296.5H655.5M638.5 309.5H655.5M655.5 296.5V309.5M655.5 296.5H672M655.5 309.5H672M672 296.5V309.5M672 296.5H687.5M672 309.5H687.5M687.5 296.5V309.5M687.5 296.5H703M687.5 309.5H703M703 296.5V309.5M703 296.5H718.5M703 309.5H718.5M718.5 296.5V309.5M718.5 296.5H736M718.5 309.5H736M736 296.5V309.5M736 296.5H752M736 309.5H752M752 296.5V309.5M752 296.5H769.5M752 309.5H769.5M769.5 296.5V309.5M769.5 296.5H787M769.5 309.5H787M787 296.5V309.5M787 296.5H803.5M787 309.5H803.5M803.5 296.5V309.5M803.5 296.5H819M803.5 309.5H819M819 296.5V309.5M819 296.5H834M819 309.5H834M834 309.5V296.5M834 309.5H850M834 296.5H850M850 296.5V309.5M850 296.5H866M850 309.5H866M866 296.5V309.5M866 296.5H879M866 309.5H879M879 296.5V309.5M879 296.5H892.5M879 309.5H892.5M892.5 296.5V309.5M892.5 296.5H908M892.5 309.5H908M908 296.5V309.5M908 296.5H923.5M908 309.5H923.5M923.5 296.5V309.5M923.5 296.5H938M923.5 309.5H938M938 296.5V309.5M938 296.5H953M938 309.5H953M953 296.5V309.5M953 296.5H968.5M953 309.5H968.5M968.5 296.5V309.5M968.5 296.5H984M968.5 309.5H984M984 296.5V309.5M984 296.5H1000.5M984 309.5H1000.5M1000.5 296.5V309.5M1000.5 296.5H1013.5M1000.5 309.5H1013.5M1013.5 296.5V309.5M1013.5 296.5H1028.5M1013.5 309.5H1028.5M1028.5 296.5V309.5M1028.5 296.5H1044.25M1028.5 309.5H1044.25M1044.25 296.5V309.5M1111 317.946L1115.25 324.473M1124 317.25L1115.25 324.473M1137.25 335.5L1128 342.5M1151.98 354L1159.82 364.5M1159.82 364.5L1151.98 371.292M1159.82 364.5L1169.16 377M1151.98 371.292L1159.99 380.396M1169.16 377L1159.99 380.396M1184.31 394.191L1178.25 400M1184.31 394.191L1191.5 400M1191.5 400L1204.5 410.5M1204.5 410.5L1200 418.047M1200 418.047L1204.5 421L1214.61 428M1214.61 428L1225.81 435.75M1227.25 427.25L1225.81 435.75" stroke="black"/>
<path d="M841 534H798V589H841V534Z" fill="#7D2521" stroke="black"/>
<path d="M196.5 671.5L123 636H1510.5L1438.5 671.5V644H196.5V671.5Z" fill="#9D4129" stroke="black"/>
</svg>
