<svg width="1962" height="1592" viewBox="0 0 1962 1592" fill="none" xmlns="http://www.w3.org/2000/svg">
<rect width="1962" height="1592" fill="#1E1E1E"/>
<rect width="1962" height="1592" fill="white"/>
<path d="M1367 1439H596V1290V1270.5V1240.5V1198.5V1168H1367V1198.5V1240.5V1270.5V1290V1439Z" fill="#A02924"/>
<path d="M596 1198.5V1168H1367V1198.5M596 1198.5H1367M596 1198.5V1240.5M1367 1198.5V1240.5M596 1240.5H1367M596 1240.5V1270.5M1367 1240.5V1270.5M596 1270.5H1367M596 1270.5V1290M1367 1270.5V1290M596 1290V1439H1367V1290M596 1290H1367" stroke="black"/>
<path d="M1507 1168H456L636.586 1044H1321.91L1507 1168Z" fill="#1E2C5E" stroke="black"/>
<path d="M638.5 910.5V1043.5H1317V910.5H638.5Z" fill="#4F668E" stroke="black"/>
<path d="M1416 910H548L714.591 795H1253.73L1416 910Z" fill="#1E2C5E" stroke="black"/>
<path d="M713 683V795.5H1251.5V683H713Z" fill="#4F668E" stroke="black"/>
<path d="M1348.5 683H625L737.5 615.5L810 534L868.5 459.5H1071.5L1132 534L1220 615.5L1348.5 683Z" fill="#1E2C5E" stroke="black"/>
<path d="M1091 459H846V430H1091V459Z" fill="#1E2C5E" stroke="black"/>
<path d="M871 385.5V430.5H1065V385.5L1035.5 345H900.5L871 385.5Z" fill="#F1C36A" stroke="black"/>
<path d="M918 295V345H1012.5V295H918Z" fill="#F1C36A" stroke="black"/>
<path d="M968 153.5C1008.61 153.5 1041.5 185.083 1041.5 224C1041.5 262.917 1008.61 294.5 968 294.5C927.387 294.5 894.5 262.917 894.5 224C894.5 185.083 927.387 153.5 968 153.5Z" fill="#F1C36A" stroke="black"/>
<path d="M904.5 295V279.5H1028.5V295H904.5Z" fill="#F1C36A" stroke="black"/>
<path d="M596 1241.13V1199H1367V1241.13V1282.61V1294.5H1220V1439H1195.5V1294.5H1059V1439H1033.5V1294.5H877V1439H857V1294.5H719.5V1439H694V1294.5H596V1282.61V1241.13Z" fill="#641617"/>
<path d="M596 1241.13V1199H1367V1241.13M596 1241.13H694M596 1241.13V1282.61M1367 1241.13H1220M1367 1241.13V1282.61M596 1282.61V1294.5H1367V1282.61M596 1282.61C604 1282.61 1113.33 1282.61 1367 1282.61M694 1241.13V1439H719.5V1256.02V1241.13M694 1241.13H719.5M719.5 1241.13H767H857M857 1241.13V1439H877V1241.13M857 1241.13H877M877 1241.13H1033.5M1033.5 1241.13V1439H1059V1241.13M1033.5 1241.13H1059M1059 1241.13H1195.5M1195.5 1241.13V1439H1220M1195.5 1241.13H1220M1228 1439H1220M1220 1241.13V1439" stroke="black"/>
<path d="M596 1199V1168H1367V1199H1347H1309.25H1251.5H1230.5V1240.5H1188.5V1199H1172H1099H1063.75V1240.5H1028.5V1199H981H885.5V1240.5H850.625V1199H833.75H800H755.5H723.25V1240.5H691V1199H655H596Z" fill="#17457C"/>
<path d="M691 1199H655H596V1168H1367V1199H1347H1309.25H1251.5H1230.5M691 1199H723.25M691 1199V1240.5H723.25V1199M1028.5 1199H981H885.5M1028.5 1199H1063.75M1028.5 1199V1240.5H1063.75V1199M1099 1199H1063.75M723.25 1199H755.5H800H833.75H850.625M1063.75 1199H1172H1188.5M885.5 1199V1240.5H850.625V1199M885.5 1199H850.625M1230.5 1199H1205H1188.5M1230.5 1199V1240.5H1188.5V1199" stroke="black"/>
<path d="M1160.5 1324V1439H1091H1000H909H824H748.5V1324H824V1439H909V1324H1000V1439H1091V1324H1160.5Z" fill="#273131"/>
<path d="M1091 1439H1160.5V1324H1091V1439ZM1091 1439H909M909 1439V1324H1000V1439H909ZM909 1439H748.5M748.5 1439V1324H824V1439H748.5Z" stroke="black"/>
<path d="M638 933.414V911H1317V933.414V1015.1V1042H638V1015.1H704H732.5H825H853.5H949.5H976H1067.5H1094.5H1184H1209.5H1287H1317V933.414H1287H1209.5H1184H1094.5H1067.5H976H949.5H853.5H825H732.5H704H638Z" fill="#ABCFA8"/>
<path d="M1317 933.414V911H638V933.414H704H732.5H825H853.5H949.5H976H1067.5H1094.5H1184H1209.5H1287H1317ZM1317 933.414V1015.1M1317 1015.1V1042H638V1015.1H704M1317 1015.1H1287H1209.5H1184H1094.5H1067.5H976H949.5H853.5H825M704 1015.1H732.5H825M704 1015.1H825" stroke="black"/>
<path d="M698 1015V934H731V1015H698Z" fill="#1E2C5E"/>
<path d="M867 1015V934H901.5V1015H867Z" fill="#1E2C5E"/>
<path d="M1054 1015V934H1088.5V1015H1054Z" fill="#1E2C5E"/>
<path d="M1235 1015V934H1268V1015H1235Z" fill="#1E2C5E"/>
<path d="M698 1015V934H731V1015H698Z" stroke="black"/>
<path d="M867 1015V934H901.5V1015H867Z" stroke="black"/>
<path d="M1054 1015V934H1088.5V1015H1054Z" stroke="black"/>
<path d="M1235 1015V934H1268V1015H1235Z" stroke="black"/>
<path d="M719.331 1242V1283H735.815H752.3H856.5V1242H719.331Z" fill="#ABCFA8"/>
<path d="M946.677 1242H919.185H877.5V1283H919.185H946.677H1034.5V1242H946.677Z" fill="#ABCFA8"/>
<path d="M1166 1283H1131.18H1058.5V1242H1131.18H1166H1196V1283H1166Z" fill="#ABCFA8"/>
<path d="M1367 1283H1332.18H1218.5V1242H1332.18H1367V1283Z" fill="#ABCFA8"/>
<path d="M693.5 1283H596V1242H693.5V1283Z" fill="#ABCFA8"/>
<path d="M752.3 1283H735.815M1166 1242H1131.18M1332.18 1283H1367M1367 1283V1242M1367 1283H1218.5V1242H1367M1367 1242H1332.18M735.815 1283H719.331V1242H856.5V1283H735.815ZM919.185 1283H946.677H1034.5V1242H946.677H919.185H877.5V1283H919.185ZM1131.18 1283H1166H1196V1242H1058.5V1283H1131.18ZM596 1283H693.5V1242H596V1283Z" stroke="black"/>
<path d="M809 795.5V683H846V795.5H809Z" fill="#1E2C5E"/>
<path d="M1119.5 795.5V683H1160V795.5H1119.5Z" fill="#1E2C5E"/>
<path d="M809 795.5V683H846V795.5H809Z" stroke="black"/>
<path d="M1119.5 795.5V683H1160V795.5H1119.5Z" stroke="black"/>
<rect x="918.5" y="668.5" width="123" height="159" fill="#F1C36A" stroke="black"/>
<rect x="941.5" y="689.5" width="79" height="117" fill="#1E2C5E" stroke="black"/>
</svg>
