<svg width="508" height="381" viewBox="0 0 508 381" fill="none" xmlns="http://www.w3.org/2000/svg">
<rect width="508" height="381" fill="#1E1E1E"/>
<rect width="508" height="381" fill="white"/>
<path d="M47 333C315.893 333 424.416 333 457.5 333M47 333L69 304M47 333H32M457.5 333C465.855 333 469.399 333 469.5 333H457.5ZM457.5 333L437 304M415 190.428L419 191.5H437V181.675V178.5H72V190.428H88.5" stroke="black"/>
<rect x="64.5" y="297.5" width="379" height="6" fill="white" stroke="black"/>
<rect x="73.5" y="209.5" width="17" height="94" fill="white" stroke="black"/>
<path d="M88.5 190.5V209.5H74.5V190.5H88.5Z" fill="white" stroke="black"/>
<rect x="419.5" y="209.5" width="18" height="94" fill="white" stroke="black"/>
<rect x="422.5" y="191.5" width="12" height="18" fill="white" stroke="black"/>
<path d="M81.5 178L77.5 174M81.5 178H430.5M81.5 178H69.5V164M81.5 178L95 184.5M77.5 174L85.5 164M77.5 174H90.5M434.5 174L430.5 178M434.5 174L427.5 164M434.5 174H411.25M430.5 178H439.5V164M430.5 178L414.5 184.5M69.5 164L81.5 152L100.5 130.5L111 111.5L120.5 101V111.5M69.5 164H85.5M120.5 111.5H394M120.5 111.5H114V120M394 111.5V101L405 111.5L414.5 130.5L427.5 152L439.5 164M394 111.5H399V120M439.5 164H427.5M114 120L85.5 164M114 120H120.5M399 120L427.5 164M399 120H383.5M85.5 303.5L80.7281 312M69.5 332H173M69.5 332H48M69.5 332H439.5M69.5 332L72.307 327M173 332H189.5M173 332L174.316 327M189.5 332H317M189.5 332L190.553 327M317 332H332M317 332L316.035 327M323.5 303.5H311.5L313.14 312M323.5 303.5H424L428.623 312M323.5 303.5L326.035 312M332 332H439.5M332 332L330.509 327M439.5 332H457M439.5 332L436.781 327M72.307 327H174.316M72.307 327L75.9561 320.5M174.316 327L176.026 320.5M190.553 327H316.035M190.553 327L191.921 320.5M316.035 327L314.781 320.5M330.509 327H436.781M330.509 327L328.57 320.5M436.781 327L433.246 320.5M75.9561 320.5H176.026M75.9561 320.5L80.7281 312M176.026 320.5L178.263 312M191.921 320.5H314.781M191.921 320.5L193.711 312M314.781 320.5L313.14 312M328.57 320.5H433.246M328.57 320.5L326.035 312M433.246 320.5L428.623 312M80.7281 312H178.263M178.263 312L180.5 303.5H195.5L193.711 312M193.711 312H313.14M326.035 312H428.623M120.5 120L90.5 174M120.5 120H131M90.5 174H116.5M131 120L116.5 174M131 120H150M116.5 174H139.5M150 120L139.5 174M150 120H169M139.5 174H164.5M169 120L164.5 174M169 120H186.5M164.5 174H184M186.5 120L184 174M186.5 120H204.5M184 174H204.5M204.5 120V174M204.5 120H222.5M204.5 174H222.5M222.5 120V174M222.5 120H242.5M222.5 174H242.5M242.5 120V174M242.5 120H263M242.5 174H263M263 120V174M263 120H284.5M263 174H284.5M284.5 120V174M284.5 120H305M284.5 174H308.5M305 120L308.5 174M305 120H323.5M308.5 174H332M323.5 120L332 174M323.5 120H344.5M332 174H362M344.5 120L362 174M344.5 120H365M362 174H388M365 120L388 174M365 120H383.5M388 174H411.25M383.5 120L411.25 174M116.5 274L100.5 270.5V206.5L116.5 214.5M116.5 274V214.5M116.5 274V297.5M116.5 214.5V190M201.5 237V246.5M201.5 237V190M201.5 237H191.921M201.5 246.5H191.921M201.5 246.5V287M95 184.5H414.5M95 184.5V190M414.5 184.5V190M414.5 190H402M414.5 190V297.5H402M95 190L88.5 191.5M95 190V297.5H116.5M95 190H116.5M116.5 297.5H125V190M116.5 190H125M125 190H173M173 190V297.5H184V190M173 190H184M184 190H191.921M201.5 190H191.921M201.5 190H242.5M201.5 297.5V287M191.921 297.5V246.5M191.921 246.5V237M191.921 190V237M305 190H317M305 190V237M305 190H267.5M305 297.5V287M317 190H328.57M317 190V237M328.57 190V297.5H317V246.5M328.57 190H337M337 190V297.5M337 190H394M394 190V297.5H402M394 190H402M402 297.5V274M402 190V211M305 237H317M305 237V246.5M317 237V246.5M317 246.5H305M305 246.5V287M242.5 190V194H267.5V190M242.5 190H267.5M402 274L411.25 270.5V206.5L402 211M402 274V211M201.5 287H305" stroke="black"/>
</svg>
