<svg width="769" height="599" viewBox="0 0 769 599" fill="none" xmlns="http://www.w3.org/2000/svg">
<rect width="769" height="599" fill="#1E1E1E"/>
<rect width="769" height="599" fill="white"/>
<path d="M660.823 461.888L691.842 507.5H660.823H499H477H284H259.5H103.986H70.6971L103.986 461.888H127L103.986 507.5H259.5L270.5 461.888H293.5L284 507.5H477L468 461.888H486L499 507.5H660.823L638 461.888H660.823Z" fill="#A1A1A1"/>
<path d="M660.823 269.494V284.947H633.586H623.5H384H134H108.526V269.494V265H660.823V269.494Z" fill="#A1A1A1"/>
<path d="M70.6971 507.5L103.986 461.888H127L103.986 507.5M70.6971 507.5H48M70.6971 507.5C81.9792 507.5 93.0747 507.5 103.986 507.5M691.842 507.5C704.485 507.5 709.847 507.5 710 507.5H691.842ZM691.842 507.5L660.823 461.888H638L660.823 507.5M691.842 507.5C684.266 507.5 674.074 507.5 660.823 507.5M691.842 507.5H660.823M108.526 269.494H660.823M108.526 269.494V284.947H134H384H623.5H633.586H660.823M108.526 269.494V265H660.823M660.823 269.494V284.947M660.823 269.494V265M660.823 284.947V265M103.986 507.5C160.655 507.5 212.365 507.5 259.5 507.5M660.823 507.5C628.319 507.5 574.903 507.5 499 507.5M284 507.5L293.5 461.888H270.5L259.5 507.5M284 507.5C275.974 507.5 267.808 507.5 259.5 507.5M284 507.5C360.424 507.5 424.153 507.5 477 507.5M499 507.5L486 461.888H468L477 507.5M499 507.5C491.106 507.5 485.442 507.5 477 507.5" stroke="black"/>
<rect x="97.5" y="450.5" width="574" height="12" fill="#A1A1A1" stroke="black"/>
<rect x="110.5" y="313.5" width="26" height="149" fill="#A1A1A1" stroke="black"/>
<path d="M134.5 285.5V313.5H111.5V285.5H134.5Z" fill="#A1A1A1" stroke="black"/>
<rect x="634.5" y="313.5" width="28" height="149" fill="#A1A1A1" stroke="black"/>
<rect x="638.5" y="285.5" width="20" height="28" fill="#A1A1A1" stroke="black"/>
<path d="M120.619 266H102.487V244L120.619 225.143L149.328 191.357L165.193 161.5L179.548 145V161.5H592.807V145L609.428 161.5L623.782 191.357L643.425 225.143L661.557 244V266H647.958L623.782 276.214V284.857V450H604.895H592.807V284.857H506.68V450H493.942H476.46H458.328V437.286H301.939V450H287.465V373.643V358.714V284.857H275.496V450H258.875V284.857H186.347V450H173.504H141.017V284.857V276.214L120.619 266Z" fill="#C9C9C9"/>
<path d="M258.875 508H102.487L106.728 500.143L112.242 489.929L119.452 476.571L126.663 463.214H270.208H292.873H468.149H486.281H638.137L645.122 476.571L652.107 489.929L657.449 500.143L661.557 508H499.125H476.46H283.807H258.875Z" fill="#C9C9C9"/>
<path d="M120.619 266L114.575 259.714M120.619 266H647.958M120.619 266H102.487V244L120.619 225.143L149.328 191.357L165.193 161.5L179.548 145V161.5M120.619 266L141.017 276.214M114.575 259.714L137.5 225.143L169.726 174.857M114.575 259.714H134.218M654.002 259.714L647.958 266M654.002 259.714L643.425 244M654.002 259.714H618.872M654.002 259.714L600.362 174.857M647.958 266H661.557V244M647.958 266L623.782 276.214M179.548 161.5H592.807M179.548 161.5H169.726V174.857M592.807 161.5V145L609.428 161.5L623.782 191.357L643.425 225.143L661.557 244M592.807 161.5H600.362V174.857M661.557 244H643.425M169.726 174.857H179.548M600.362 174.857L643.425 244M600.362 174.857H576.941M102.487 508H258.875M102.487 508H70M102.487 508H661.557M102.487 508L106.728 500.143M258.875 508H283.807M258.875 508L260.863 500.143M270.208 463.214H292.873M270.208 463.214L266.828 476.571M270.208 463.214H126.663L119.452 476.571M270.208 463.214L263.448 489.929M292.873 463.214L290.169 476.571M292.873 463.214H468.149M292.873 463.214L283.807 508M283.807 508H476.46M283.807 508L285.397 500.143M476.46 508H499.125M476.46 508L475.002 500.143M468.149 463.214H486.281M468.149 463.214L470.628 476.571M486.281 463.214H638.137L645.122 476.571M486.281 463.214L490.112 476.571M499.125 508H661.557M499.125 508L496.871 500.143M661.557 508H688M661.557 508L657.449 500.143M106.728 500.143H260.863M106.728 500.143L112.242 489.929M260.863 500.143L263.448 489.929M285.397 500.143H475.002M285.397 500.143L287.465 489.929M475.002 500.143L473.106 489.929M496.871 500.143H657.449M496.871 500.143L493.942 489.929M657.449 500.143L652.107 489.929M112.242 489.929H263.448M112.242 489.929L119.452 476.571M263.448 489.929L266.828 476.571M287.465 489.929H473.106M287.465 489.929L290.169 476.571M473.106 489.929L470.628 476.571M493.942 489.929H652.107M493.942 489.929L490.112 476.571M652.107 489.929L645.122 476.571M119.452 476.571H266.828M290.169 476.571H470.628M490.112 476.571H645.122M179.548 174.857L134.218 259.714M179.548 174.857H195.413M134.218 259.714H173.504M195.413 174.857L173.504 259.714M195.413 174.857H224.122M173.504 259.714H208.257M224.122 174.857L208.257 259.714M224.122 174.857H252.831M208.257 259.714H246.032M252.831 174.857L246.032 259.714M252.831 174.857H279.274M246.032 259.714H275.496M279.274 174.857L275.496 259.714M279.274 174.857H306.472M275.496 259.714H306.472M306.472 174.857V259.714M306.472 174.857H333.67M306.472 259.714H333.67M333.67 174.857V259.714M333.67 174.857H363.89M333.67 259.714H363.89M363.89 174.857V259.714M363.89 174.857H394.866M363.89 259.714H394.866M394.866 174.857V259.714M394.866 174.857H427.352M394.866 259.714H427.352M427.352 174.857V259.714M427.352 174.857H458.328M427.352 259.714H463.616M458.328 174.857L463.616 259.714M458.328 174.857H486.281M463.616 259.714H499.125M486.281 174.857L499.125 259.714M486.281 174.857H518.012M499.125 259.714H544.455M518.012 174.857L544.455 259.714M518.012 174.857H548.988M544.455 259.714H583.741M548.988 174.857L583.741 259.714M548.988 174.857H576.941M583.741 259.714H618.872M576.941 174.857L618.872 259.714M173.504 416.857L149.328 411.357V310.786L173.504 323.357M173.504 416.857V323.357M173.504 416.857V450M173.504 323.357V284.857M301.939 358.714V373.643M301.939 358.714V284.857M301.939 358.714H287.465M301.939 373.643H287.465M301.939 373.643V437.286M141.017 276.214H623.782M141.017 276.214V284.857M623.782 276.214V284.857M623.782 284.857H604.895M623.782 284.857V450H604.895M141.017 284.857H134.218M141.017 284.857V450H173.504M141.017 284.857H173.504M173.504 450H186.347V284.857M173.504 284.857H186.347M186.347 284.857H258.875M258.875 284.857V450H275.496V284.857M258.875 284.857H275.496M275.496 284.857H287.465M301.939 284.857H287.465M301.939 284.857H363.89M287.465 373.643V450H301.939V437.286M287.465 373.643V358.714M287.465 284.857V358.714M458.328 284.857H476.46M458.328 284.857V358.714M458.328 284.857H401.665M476.46 284.857H493.942M476.46 284.857V358.714M476.46 450H493.942M476.46 450V373.643M476.46 450H458.328V437.286M493.942 450V284.857M493.942 450H506.68V284.857M493.942 284.857H506.68M506.68 284.857H592.807M592.807 284.857V450H604.895M592.807 284.857H604.895M604.895 450V416.857M604.895 284.857V317.857M458.328 358.714H476.46M458.328 358.714V373.643M476.46 358.714V373.643M476.46 373.643H458.328M458.328 373.643V437.286M363.89 284.857V291.143H401.665V284.857M363.89 284.857H401.665M604.895 416.857L618.872 411.357V310.786L604.895 317.857M604.895 416.857V317.857M301.939 437.286H458.328" stroke="black"/>
<path d="M301.5 359H287.5V374H301.5V359Z" fill="#B80000"/>
<path d="M476.5 359H458.5V374H476.5V359Z" fill="#B80000"/>
<path d="M301.5 359H287.5V374H301.5V359Z" stroke="black"/>
<path d="M476.5 359H458.5V374H476.5V359Z" stroke="black"/>
<path d="M173.5 321.676L149.5 309V410.915L173.5 417V321.676Z" fill="#D80000" stroke="black"/>
<path d="M293 463H270.5L259 508H284L293 463Z" fill="#A1A1A1" stroke="black"/>
<path d="M486 463H468L476 508H499.5L486 463Z" fill="#A1A1A1" stroke="black"/>
<path d="M619.5 310.5L605 317.5V418L619.5 412V310.5Z" fill="#D80000" stroke="black"/>
<path d="M170 174V162H600.5V174L654 258.5L648 264.5L623.5 277H142L120 264.5L115 258.5L170 174Z" fill="black" fill-opacity="0.5" stroke="black"/>
<path d="M302 450V438H458V450H302Z" fill="#A1A1A1"/>
<path d="M302 438V450H458V438H302ZM302 438V400.5V322V284.5H338H394H458V295.5V348V400.5" stroke="black"/>
<path d="M289.5 285H275V450H289.5V407V365V285Z" fill="#555555"/>
<path d="M495 285H473.5V450H495V285Z" fill="#555555"/>
<path d="M187 450V285H259V450H187Z" fill="#555555"/>
<path d="M507.5 450V285H592.5V450H507.5Z" fill="#555555"/>
<path d="M289.5 285H275V450H289.5V407V365V285Z" stroke="black"/>
<path d="M495 285H473.5V450H495V285Z" stroke="black"/>
<path d="M187 450V285H259V450H187Z" stroke="black"/>
<path d="M507.5 450V285H592.5V450H507.5Z" stroke="black"/>
<path d="M458.5 285H302.5V437.5H458.5V285Z" fill="white" stroke="black"/>
<path d="M364.5 291.5V285H403V291.5H364.5Z" fill="#FFF38B" stroke="black"/>
</svg>
