<?xml version="1.0" standalone="no"?><!DOCTYPE svg PUBLIC "-//W3C//DTD SVG 1.1//EN" "http://www.w3.org/Graphics/SVG/1.1/DTD/svg11.dtd"><svg t="1773545443308" class="icon" viewBox="0 0 1024 1024" version="1.1" xmlns="http://www.w3.org/2000/svg" p-id="7555" xmlns:xlink="http://www.w3.org/1999/xlink" width="200" height="200"><path d="M659.8144 504.7296a11.9296 11.9296 0 0 1 5.12 5.6832c0.4608 1.1264 1.4336 2.3552 0 3.5328s-2.0992 0-3.1744 0a220.5696 220.5696 0 0 0-28.8256-7.4752 10.24 10.24 0 0 0-8.96 2.0992 40.96 40.96 0 0 1-13.1584 7.5264 1.0752 1.0752 0 0 0 0.7168 1.5872 79.0528 79.0528 0 0 1 20.48 11.5712 6.2464 6.2464 0 0 0 5.12 0.6144 88.5248 88.5248 0 0 0 24.7296-10.24c1.4336-0.7168 2.7136-2.0992 4.2496-0.4608s0.5632 3.0208-0.3072 4.4544a32.9728 32.9728 0 0 1-11.1104 10.24 113.1008 113.1008 0 0 1 31.6416 5.12 134.8608 134.8608 0 0 1 85.7088 169.8304A120.7808 120.7808 0 0 1 729.088 768a116.8384 116.8384 0 0 1-69.4272 23.6032 133.12 133.12 0 0 1-52.0192-10.24 121.8048 121.8048 0 0 1-53.9648-42.7008 148.992 148.992 0 0 1-23.296-46.08 106.1888 106.1888 0 0 1-5.12-36.864c-3.3792 4.4544-7.3216 8.192-11.008 12.1856-2.2016 2.3552-3.5328 2.6624-5.12-0.6656a85.8624 85.8624 0 0 0-10.24-11.3664 88.2176 88.2176 0 0 1-1.6896 15.872A138.8032 138.8032 0 0 1 440.32 768a125.3376 125.3376 0 0 1-92.16 22.5792A111.9232 111.9232 0 0 1 293.888 768a121.2416 121.2416 0 0 1-40.96-52.5824 128.6144 128.6144 0 0 1 0.9216-98.3552 130.4576 130.4576 0 0 1 35.84-49.92 131.9424 131.9424 0 0 1 48.2304-28.2624 140.5952 140.5952 0 0 1 31.1296-5.12 28.7232 28.7232 0 0 1-9.728-10.24c-0.512-0.8192-1.2288-1.6896-0.6656-2.6624s1.9456-0.5632 3.0208-0.3584a85.4528 85.4528 0 0 1 14.1824 5.888q3.5328 1.4336 7.2192 2.6112a11.0592 11.0592 0 0 0 12.288-2.6624 64.6656 64.6656 0 0 1 19.3536-10.6496 43.3152 43.3152 0 0 1-16.4352-8.3456 8.96 8.96 0 0 0-6.9632-0.9728 135.4752 135.4752 0 0 0-29.5424 8.5504c-1.1776 0.512-2.6112 2.2528-3.7888 0.6656s0.6144-2.6112 1.28-3.84a11.3664 11.3664 0 0 1 6.9632-6.5536c-6.8608-1.2288-13.6192-1.792-20.1216-3.5328a129.4336 129.4336 0 0 1-39.5776-17.7664A149.0432 149.0432 0 0 1 276.48 457.4208 134.4512 134.4512 0 0 1 246.4256 394.24a127.0784 127.0784 0 0 1 7.3728-73.3696 125.5424 125.5424 0 0 1 24.32-37.3248A117.3504 117.3504 0 0 1 381.952 244.736 124.7744 124.7744 0 0 1 440.32 267.264a133.12 133.12 0 0 1 38.1952 43.008A173.5168 173.5168 0 0 1 496.64 358.7584c1.1264 4.608 0 9.6768 2.816 14.7968 9.0112-10.24 17.5616-8.3456 25.6 2.56a122.1632 122.1632 0 0 1 7.424-38.7584 143.36 143.36 0 0 1 33.7408-55.5008 126.9248 126.9248 0 0 1 85.9136-37.888 112.1792 112.1792 0 0 1 76.8 24.576 128.3072 128.3072 0 0 1 43.52 61.44 125.9008 125.9008 0 0 1 4.4032 62.8224 129.9968 129.9968 0 0 1-36.1984 71.424 137.5232 137.5232 0 0 1-50.1248 33.0752 90.368 90.368 0 0 1-25.6 5.9392 9.728 9.728 0 0 0-5.12 1.4848zM440.32 690.0736a198.6048 198.6048 0 0 0-2.7648-30.3616c-1.1264-6.0416-0.7168-6.5024 5.12-6.912a62.72 62.72 0 0 0 49.2032-28.928 97.28 97.28 0 0 0 15.36-47.6672 35.84 35.84 0 0 1 1.4848-11.4176c0.6144-1.4848 0-4.2496 2.56-3.9424s1.5872 2.7648 1.6896 4.4032a148.48 148.48 0 0 0 12.6464 51.2 35.84 35.84 0 0 0 5.7344 9.4208c13.4656 14.5408 29.0816 25.1904 49.4592 26.8288 3.9936 0.3072 4.7616 2.048 4.0448 5.6832a83.6608 83.6608 0 0 0-1.792 28.7744c0 1.1776 0.6144 2.8672-1.024 3.2768s-1.6384-1.28-2.2528-2.2016a39.5776 39.5776 0 0 1-7.1168-24.064 7.168 7.168 0 0 0-5.6832-8.192 33.9968 33.9968 0 0 1-10.24-5.12c-4.7616-3.7888-5.7344-3.328-6.5024 2.816a41.4208 41.4208 0 0 0-0.3072 4.352 90.5728 90.5728 0 0 0 12.288 46.4896 116.992 116.992 0 0 0 35.84 40.192 157.5424 157.5424 0 0 0 18.3808 10.24 99.8912 99.8912 0 0 0 33.1264 9.3184 68.608 68.608 0 0 0 25.6-1.3312 102.4 102.4 0 0 0 39.0144-17.7152 94.464 94.464 0 0 0 36.9664-62.5152 91.7504 91.7504 0 0 0-2.2016-37.8368 124.7232 124.7232 0 0 0-45.3632-69.12 92.928 92.928 0 0 0-53.1968-18.2784c-4.1472 0-3.9424 1.6384-2.2528 4.1984a31.3344 31.3344 0 0 1 5.5808 14.6944 4.096 4.096 0 0 0 4.1472 3.8912 76.8 76.8 0 0 1 18.4832 5.12 22.6304 22.6304 0 0 1 12.8512 9.1648 23.4496 23.4496 0 0 1-2.9696 0.3584c-6.5536-0.5632-13.056-1.536-19.6096-1.6896a16.128 16.128 0 0 0-14.2336 4.096 1.9456 1.9456 0 0 1-2.6112 0.6144c-1.1264-0.768-0.6656-1.9968-0.5632-3.1232a72.4992 72.4992 0 0 0-16.0768-53.2992 65.9456 65.9456 0 0 0-43.8272-24.1152c-6.9632-1.0752-13.8752-2.5088-20.7872-3.6352-1.28 0-2.7648-0.4096-2.7648-2.0992s1.2288-2.2528 2.5088-2.5088c2.5088-0.4608 5.12-0.8704 7.5776-1.1776a233.6768 233.6768 0 0 0 35.84-5.12c20.48-5.6832 31.232-19.7632 36.4544-39.5264a69.9392 69.9392 0 0 0 1.6384-18.1248c0-2.816 0.768-3.8912 3.7376-2.6112a26.2144 26.2144 0 0 0 10.24 1.3312 104.4992 104.4992 0 0 0 25.1392-2.2528 5.12 5.12 0 0 1-2.8672 4.1984 48.4864 48.4864 0 0 1-23.7056 9.8304c-2.6112 0-5.12 0.4096-6.4512 3.2768-2.9184 6.7072-5.888 13.4144-9.0624 20.48a118.9888 118.9888 0 0 0 22.272-1.0752A100.8128 100.8128 0 0 0 725.8624 440.32a120.1664 120.1664 0 0 0 25.344-60.1088 95.488 95.488 0 0 0-12.288-60.3136 96.6144 96.6144 0 0 0-47.0528-42.3936 88.5248 88.5248 0 0 0-74.1376 2.5088 123.648 123.648 0 0 0-44.7488 35.5328 96.6144 96.6144 0 0 0-22.9376 60.0576c0 3.1744-1.536 7.5776 0.8192 9.1136s4.8128-3.1232 7.68-3.6864c11.6736-2.2528 15.36-10.24 16.384-20.992a26.3168 26.3168 0 0 1 6.656-13.5168c1.6896 1.4848 0.9728 2.816 0.9728 3.9936a95.0784 95.0784 0 0 0 1.5872 24.9856c1.4848 5.5296 1.3312 5.632-4.2496 6.0928a70.8608 70.8608 0 0 0-34.2528 11.5712 74.8544 74.8544 0 0 0-24.9344 33.4336 108.3392 108.3392 0 0 0-7.7312 40.3968c0 1.9456 0.9216 5.12-1.6896 5.12s-1.8432-3.072-2.0992-4.8128c-1.8944-15.9232-3.1744-31.8464-10.24-46.7456a62.3104 62.3104 0 0 0-24.4736-28.8768 71.68 71.68 0 0 0-31.7952-9.8816c-4.4544 0-5.12-2.4576-4.4032-5.9392a104.8064 104.8064 0 0 0 1.7408-24.9856c0-1.1776-0.512-2.9184 1.2288-3.1744s1.7408 1.28 2.2528 2.2528a49.152 49.152 0 0 1 6.2464 20.1216A7.0656 7.0656 0 0 0 455.68 377.8048a62.9248 62.9248 0 0 1 12.8512 5.12c4.608 1.9968 5.5296 1.792 5.12-3.4304a126.0032 126.0032 0 0 0-2.7648-24.32 118.016 118.016 0 0 0-64.256-75.2128c-26.9824-12.1856-53.76-13.2096-80.6912 0a99.7888 99.7888 0 0 0-47.616 126.8736A122.88 122.88 0 0 0 317.44 460.3392a81.0496 81.0496 0 0 0 53.9136 19.6608c4.5568 0 4.2496-1.536 2.7136-4.7616s-5.4272-7.2192-6.144-11.9296A7.5776 7.5776 0 0 0 358.8608 455.68a23.9104 23.9104 0 0 1-9.216-2.5088 43.4176 43.4176 0 0 1-14.6432-9.8304c3.4304 0 6.6048 0.3584 9.7792 0.512a64.4096 64.4096 0 0 0 23.8592-1.024c3.4304-1.0752 3.8912 0 3.8912 2.9184a75.2128 75.2128 0 0 0 1.536 18.176c6.2464 24.6784 18.3808 35.1744 39.68 40.0384a191.8464 191.8464 0 0 0 36.7104 3.9936 9.4208 9.4208 0 0 1 6.8096 1.6384c1.0752 0.9728 2.5088 1.8944 1.9456 3.584s-1.9968 1.4848-3.2768 1.4848a193.1776 193.1776 0 0 0-24.32 2.7648 65.9456 65.9456 0 0 0-46.4896 29.4912 69.6832 69.6832 0 0 0-12.6464 41.8816 28.3136 28.3136 0 0 1-0.9216 10.24c-3.7888-5.7856-8.96-5.12-13.8752-5.12a103.424 103.424 0 0 0-18.2272 1.024c-1.3312 0-3.3792 0.7168-3.9424-0.6656s1.3312-2.7136 2.5088-3.584a48.0256 48.0256 0 0 1 21.2992-8.448c2.9696-0.512 6.2464-0.8704 7.6288-4.1472 2.4576-5.5808 4.6592-11.264 6.9632-16.9472 0.9216-2.304 0.5632-3.7376-2.4064-3.4816a120.9344 120.9344 0 0 0-22.272 3.584 89.856 89.856 0 0 0-32.1024 16.7936 125.9008 125.9008 0 0 0-37.7856 50.2272 102.7072 102.7072 0 0 0-7.9872 35.4816 92.16 92.16 0 0 0 34.2016 79.104 90.9312 90.9312 0 0 0 62.5664 21.9136 88.2688 88.2688 0 0 0 14.2336-2.048 112.9472 112.9472 0 0 0 67.8912-41.3696 104.3968 104.3968 0 0 0 21.504-43.1104c2.2528-9.7792 4.7616-20.0192-0.3072-30.0032-5.12 2.3552-8.96 7.1168-14.6432 8.4992s-7.3728 4.4032-7.3216 10.24a31.7952 31.7952 0 0 1-9.1648 23.0912z m71.2192-87.8592a49.7664 49.7664 0 0 1-11.52 20.9408 7.68 7.68 0 0 0-1.0752 7.3728c2.4064 9.472 6.8096 18.2272 10.24 27.392 0.9728 2.7136 2.6112 2.56 4.0448 0a84.1216 84.1216 0 0 0 11.1616-28.0064 10.24 10.24 0 0 0-1.7408-8.192 57.7536 57.7536 0 0 1-10.9568-19.5072z m-0.5632-176.4864a45.5168 45.5168 0 0 1 12.6976-19.8144c1.8944-1.6384 1.28-3.6864 0.9728-5.7856a79.3088 79.3088 0 0 0-11.1104-25.6c-0.7168-1.3312-1.0752-3.584-2.7648-3.6352s-1.6384 2.7136-2.5088 4.1472-1.6896 3.4304-2.56 5.12a74.3936 74.3936 0 0 0-7.3216 21.1968c-0.256 1.792-0.6144 3.584 0.9728 5.12a40.96 40.96 0 0 1 11.776 19.2512z" fill="#142D4F" p-id="7556"></path><path d="M112.64 568.32a32.768 32.768 0 0 1-24.1664-10.24c-8.2944-7.7312-13.7216-17.8176-21.4016-26.0608a57.1904 57.1904 0 0 0-13.6704-11.9296c-2.816-1.536-2.6624-2.7648-0.3072-4.4032C65.3312 506.88 72.9088 494.1312 81.92 482.304a40.96 40.96 0 0 1 26.2144-18.176 24.832 24.832 0 0 1 15.36 2.4576 100.1472 100.1472 0 0 1 24.7808 17.8688 88.576 88.576 0 0 0 33.9456 18.432 230.4 230.4 0 0 0 42.24 10.8544c1.1776 0 2.9184 0 2.816 1.8432s-1.6384 1.3312-2.6624 1.536a260.3008 260.3008 0 0 0-42.8032 14.1312 132.7104 132.7104 0 0 0-32.0512 18.2784 84.48 84.48 0 0 1-26.2656 16.64A29.5424 29.5424 0 0 1 112.64 568.32z m74.24-49.5104c-6.5024-4.8128-13.7216-6.8096-19.7632-11.0592a65.792 65.792 0 0 0-9.8816-5.12 16.9472 16.9472 0 0 0-2.7136-0.9216c-7.0656-1.8944-10.24 0.8704-7.936 7.8848a26.0608 26.0608 0 0 1 0.6656 15.36 6.4512 6.4512 0 0 0 2.2016 7.7824c2.5088 1.7408 5.12 0.7168 7.68-0.512a252.4672 252.4672 0 0 1 29.6448-13.6704zM796.0064 515.328a138.5472 138.5472 0 0 1 19.2512-4.7104 215.7568 215.7568 0 0 0 48.9984-17.7664 101.888 101.888 0 0 0 17.8688-13.7728 63.8464 63.8464 0 0 1 21.8624-13.6192c15.36-5.12 26.5216 2.5088 35.84 13.6192 6.6048 7.9872 12.1344 16.9472 18.4832 25.1904a41.728 41.728 0 0 0 12.288 10.6496c1.7408 0.9728 3.84 2.5088 0.8704 4.096-13.3632 7.0656-20.48 19.9168-29.696 31.0784a45.5168 45.5168 0 0 1-21.6064 16.896 35.84 35.84 0 0 1-33.6896-8.2944 172.544 172.544 0 0 0-46.5408-28.4672 323.2256 323.2256 0 0 0-37.8368-12.3392 10.24 10.24 0 0 1-6.0928-2.56z m40.96 3.1232c11.7248 3.7888 21.3504 9.8816 31.7952 14.08 2.2016 0.8704 4.1984 1.8944 6.2464 0a6.2464 6.2464 0 0 0 2.4576-6.8608 22.7328 22.7328 0 0 1 0-15.9232 6.7072 6.7072 0 0 0-0.8192-7.3216 6.4512 6.4512 0 0 0-7.68-0.512c-10.4448 5.3248-20.8384 10.752-32.0512 16.5376zM512 240.64a29.5424 29.5424 0 0 1-4.5056-14.3872 355.1232 355.1232 0 0 0-9.728-35.072 152.5248 152.5248 0 0 0-23.0912-47.2576 46.6944 46.6944 0 0 1-11.008-27.2384A32.256 32.256 0 0 1 474.3168 92.16a230.4 230.4 0 0 1 18.4832-15.36 67.2768 67.2768 0 0 0 16.7936-18.2784c1.3312-2.3552 2.2016-3.1744 4.096 0a70.6048 70.6048 0 0 0 19.8656 20.48 82.2272 82.2272 0 0 1 20.0192 17.8688c8.448 11.8272 7.2704 24.4224 1.8432 37.12a75.2128 75.2128 0 0 1-9.0112 14.7968 144.384 144.384 0 0 0-21.4528 47.0016c-4.1472 14.4896-9.0112 28.7232-11.9808 43.52-0.0512 0.4096-0.512 0.768-0.9728 1.3312z m0-43.2128c2.7648-5.5296 4.1984-10.24 6.2976-14.6944a99.4816 99.4816 0 0 0 9.0624-22.0672c1.1264-5.632-2.6112-8.8064-7.8336-6.6048a16.9984 16.9984 0 0 1-15.36 0C499.2 151.5008 496.64 153.6 496.64 158.72a14.3872 14.3872 0 0 0 0.768 5.12 222.3104 222.3104 0 0 1 14.592 33.7408zM559.5136 906.6496a35.328 35.328 0 0 1-14.08 29.7472 261.632 261.632 0 0 0-26.5728 22.1696 45.3632 45.3632 0 0 0-5.12 7.4752c-1.4848 2.4576-2.9184 1.9456-3.7888 0-5.12-11.2128-15.36-16.6912-24.4224-23.7568a75.1616 75.1616 0 0 1-15.0528-13.4144 32.512 32.512 0 0 1-1.4848-37.4784c4.7616-7.424 9.728-14.7456 14.7456-22.016a124.928 124.928 0 0 0 14.592-34.3552 344.8832 344.8832 0 0 0 11.4688-43.9808c0-1.3312 0-3.5328 1.792-3.584s1.3824 2.1504 1.792 3.4304c6.2976 22.2208 11.52 44.9024 20.48 66.2016a145.8688 145.8688 0 0 0 15.9232 26.3168 46.08 46.08 0 0 1 9.728 23.2448z m-47.0528-74.9056c-3.7888 10.24-8.9088 19.456-13.4656 28.9792a19.7632 19.7632 0 0 0-2.3552 10.24c0.4096 4.5568 2.4064 6.1952 6.6048 4.7616a20.48 20.48 0 0 1 16.128-0.4608c5.7856 2.56 10.24-1.4336 8.192-7.5264-3.6864-12.6976-11.008-23.5008-15.104-35.9936z" fill="#2D6C97" p-id="7557"></path><path d="M819.5584 595.968c17.2544-5.8368 22.6304-20.48 14.7968-36.096s-20.48-24.576-34.56-32.6144c-0.9216-0.5632-2.048-0.9216-2.2528-2.816a40.96 40.96 0 0 1 14.7968 3.0208 282.368 282.368 0 0 1 51.712 22.8864 130.7136 130.7136 0 0 1 27.2384 17.9712 43.9808 43.9808 0 0 1 10.24 14.3872 23.1936 23.1936 0 0 1-3.84 24.832 30.72 30.72 0 0 1-30.72 11.4688 11.5712 11.5712 0 0 1-7.7824-5.12c-1.4848-2.0992-2.7648-4.3008-4.2496-6.6048-1.28 0.6656-0.768 1.9456-0.9728 2.8672-3.1232 15.36-14.8992 23.3984-31.8976 21.6064-18.944-1.9968-28.9792-19.4048-29.3376-36.1472 0-2.304 1.7408-3.0208 3.328-3.6352 18.176-6.912 13.2096-30.464 2.2016-39.5776a32.3584 32.3584 0 0 0-25.2928-6.3488 13.568 13.568 0 0 0-11.3664 11.776 12.6464 12.6464 0 0 0 11.264 11.8272 36.7104 36.7104 0 0 0 6.7072 0c1.9968 0 3.9936-0.6144 7.2192-1.1776a16.0256 16.0256 0 0 1-12.1344 3.4816c-15.36 0-23.9104-11.9808-19.8656-27.0336 5.12-18.7392 19.3024-20.48 32.1536-14.592a64.9728 64.9728 0 0 1 27.5968 20.8896 41.8304 41.8304 0 0 1 6.4 38.8608c-0.6656 1.8432-1.7408 3.84-1.3824 5.888zM239.4112 569.2928a43.4688 43.4688 0 0 0 10.24 0.3072 14.0288 14.0288 0 0 0 9.1648-3.7376 10.8032 10.8032 0 0 0 3.6864-11.3152 12.3904 12.3904 0 0 0-9.8304-8.3968 29.6448 29.6448 0 0 0-33.5872 16.5888 23.552 23.552 0 0 0-0.9216 20.0192 20.48 20.48 0 0 0 9.728 8.9088 5.9392 5.9392 0 0 1 2.9696 6.7584 36.1472 36.1472 0 0 1-21.1456 31.0272c-15.7696 7.168-34.7136-0.768-38.8096-16.1792a50.432 50.432 0 0 1-1.024-6.0928H168.96c-6.8608 18.5344-32.5632 13.6704-42.0352 1.7408-10.24-13.0048-7.68-26.0608 2.3552-36.9152a87.7056 87.7056 0 0 1 21.1968-16.4864 416.9216 416.9216 0 0 1 52.224-25.6 126.0032 126.0032 0 0 1 23.3472-6.0416c0 1.9968-1.1776 2.6112-2.3552 3.2768a88.9856 88.9856 0 0 0-32.8704 30.1568 30.3616 30.3616 0 0 0-3.2768 24.9856c1.3312 4.7104 5.9392 7.0144 9.5232 9.8816a43.3152 43.3152 0 0 0 7.424 4.0448 2.56 2.56 0 0 0 0-2.9696c-6.3488-16.9472-2.0992-32 8.9088-45.3632a58.0608 58.0608 0 0 1 30.0032-19.8144c14.3872-3.7888 20.7872 2.304 25.2928 14.5408a21.1968 21.1968 0 0 1-1.536 20.48 22.6304 22.6304 0 0 1-27.7504 6.1952zM800.9216 506.1632a100.096 100.096 0 0 0 23.6544-18.0224 42.9056 42.9056 0 0 0 13.056-26.1632c0.9728-13.2608-5.12-20.992-19.4048-22.7328 1.1264 2.6624 2.0992 5.12 3.1744 7.5776a33.4336 33.4336 0 0 1-1.5872 27.9552 56.32 56.32 0 0 1-48.64 31.5392 14.2848 14.2848 0 0 1-12.032-6.7072 25.6 25.6 0 0 1-3.5328-26.3168c4.1472-9.7792 20.224-14.6944 28.8768-8.6528-1.6384 0.9728-2.7648-0.3072-3.9936-0.6144a17.92 17.92 0 0 0-17.6128 7.3216 13.1584 13.1584 0 0 0 0.9728 15.36 12.4928 12.4928 0 0 0 10.24 4.608 32.1536 32.1536 0 0 0 33.4336-35.6352 17.7152 17.7152 0 0 0-10.24-14.2336 5.888 5.888 0 0 1-3.5328-6.8608A35.84 35.84 0 0 1 806.4 409.6a29.44 29.44 0 0 1 28.928-5.632 25.6 25.6 0 0 1 18.5344 20.992 22.3744 22.3744 0 0 1 0.4608 2.5088c11.0592-17.4592 33.024-16.64 44.7488 1.1776a24.4224 24.4224 0 0 1 1.4848 25.6 57.9072 57.9072 0 0 1-23.552 24.1664 251.4944 251.4944 0 0 1-45.824 20.7872A228.096 228.096 0 0 1 803.84 506.88a2.9696 2.9696 0 0 1-2.9184-0.7168zM239.5136 466.432a5.12 5.12 0 0 1 3.6864-3.9424c9.1648-3.4816 26.9312 3.1744 27.4944 17.9712a28.6208 28.6208 0 0 1-2.6112 14.5408c-5.4272 10.24-9.6768 12.8512-22.016 10.9056a52.992 52.992 0 0 1-42.6496-33.3824 35.0208 35.0208 0 0 1 0.4096-28.16c0.5632-1.3824 2.2016-2.9696 0.6144-4.352s-3.072 0-4.5568 0.5632c-16.7424 6.144-17.2544 19.7632-9.8304 35.4304 6.4 13.568 18.1248 22.1184 30.72 29.2864a23.552 23.552 0 0 1 2.5088 1.536 97.792 97.792 0 0 1-26.4704-5.9392 334.1824 334.1824 0 0 1-37.632-15.36 117.0432 117.0432 0 0 1-29.7472-20.9408 27.7504 27.7504 0 0 1-3.3792-37.888A30.72 30.72 0 0 1 152.576 414.72a19.3024 19.3024 0 0 1 16.7424 13.6704 31.8976 31.8976 0 0 1 5.888-15.36 30.72 30.72 0 0 1 43.4688-2.304 37.7344 37.7344 0 0 1 11.3664 24.2688c0.3072 2.7136 0 5.12-2.6624 6.656-10.7008 5.5296-13.7728 15.36-9.5232 27.9552a29.7472 29.7472 0 0 0 34.1504 21.3504 11.9296 11.9296 0 0 0 11.2128-10.7008 16.0256 16.0256 0 0 0-8.1408-14.336 14.2848 14.2848 0 0 0-15.5648 0.512zM424.6016 169.6768a27.9552 27.9552 0 0 1-5.12-42.9056c13.2608-15.0016 27.136-11.776 39.8848 1.8432a83.2512 83.2512 0 0 1 15.36 24.832c7.2192 16.7936 13.1584 34.048 18.9952 51.2 3.1744 9.5232 5.12 19.3536 8.9088 28.7232 0.5632 1.4336 1.536 3.6352 0 4.4032s-2.4576-1.5872-3.1744-2.816a86.2208 86.2208 0 0 0-17.92-22.3744 43.4176 43.4176 0 0 0-23.3472-10.496 26.624 26.624 0 0 0-26.8288 19.7632c-1.3312 6.5536-2.1504 6.8096-8.3968 4.7616a31.3344 31.3344 0 0 1-19.0976-41.8304 20.7872 20.7872 0 0 1 16.896-14.1312 6.144 6.144 0 0 0 3.84-0.9728zM597.1456 169.472c17.6128 3.328 23.552 10.6496 24.1664 26.624a30.72 30.72 0 0 1-24.1152 32.1024c-3.584 0.8192-4.6592-0.9216-5.12-3.7376a26.0608 26.0608 0 0 0-18.6368-21.0944c-9.3696-3.328-16.6912 0.7168-24.0128 4.7104-11.6736 6.4-18.4832 17.4592-25.6 28.2624-0.8704 1.3312-1.1776 3.0208-3.3792 4.4032a29.7984 29.7984 0 0 1 1.536-11.1616c3.3792-12.032 6.8096-24.064 11.2128-35.84A405.248 405.248 0 0 1 551.424 148.48a105.6256 105.6256 0 0 1 14.2336-22.1696 23.808 23.808 0 0 1 27.8528-6.912c13.8752 6.2464 23.3472 31.8976 13.824 42.9056a36.608 36.608 0 0 1-10.1888 7.168zM423.7824 860.7744a19.9168 19.9168 0 0 1-19.8656-13.7728c-6.144-18.9952 1.5872-37.6832 23.296-43.264 3.5328-0.8704 4.5056 1.3312 5.12 3.9936a32.6144 32.6144 0 0 0 12.4416 17.8688c10.7008 7.8848 21.0944 4.4544 30.72-1.6896a67.5328 67.5328 0 0 0 23.2448-28.3136c0.4096-0.8704 0.7168-1.792 1.0752-2.6624s1.0752-2.9184 2.5088-2.4576 0.6656 2.2016 0.3072 3.328c-3.8912 13.056-7.68 26.112-11.776 39.0656a352.8704 352.8704 0 0 1-18.2784 46.08 64.3584 64.3584 0 0 1-20.992 27.648c-12.3904 8.2432-23.5008 6.3488-32.4096-5.4272a32.9728 32.9728 0 0 1-6.5536-23.6032 16.128 16.128 0 0 1 8.96-14.4384c1.024-0.4096 2.0992-0.768 2.2016-2.3552zM521.4208 791.4496a84.1728 84.1728 0 0 0 8.8064 14.6432 65.6896 65.6896 0 0 0 25.6 21.76c12.1856 5.5296 27.904-2.816 32.8192-14.848a18.5344 18.5344 0 0 0 0.6656-1.792c3.0208-9.216 4.4032-9.984 13.2096-5.888a28.8256 28.8256 0 0 1 18.5856 27.3408 29.5936 29.5936 0 0 1-4.1984 18.8928 18.2784 18.2784 0 0 1-13.4656 8.192 25.6 25.6 0 0 0-3.5328 0.9728c0 1.8432 1.1776 1.9456 1.9968 2.5088a19.8144 19.8144 0 0 1 8.8576 22.1184 49.5104 49.5104 0 0 1-8.96 19.0464c-6.0928 8.0384-21.504 9.1136-30.0032 3.1232-9.3184-6.5024-14.336-16.128-19.3024-25.9584-6.8096-13.5168-11.3152-27.9552-16.8448-41.984a467.0976 467.0976 0 0 1-15.36-45.1584c0.2048-0.8192-0.512-1.7408 1.1264-2.9696z" fill="#2D6C97" p-id="7558"></path><path d="M835.3792 308.3776c-16.7936 0-29.3888-6.144-37.2224-20.48a23.9104 23.9104 0 0 1-0.3072-24.32c1.024-1.8432 2.304-3.8912 4.7616-3.584s2.56 2.9696 3.1232 5.12a38.8608 38.8608 0 0 0 9.216 19.2512 28.416 28.416 0 0 0 27.648 5.7856C862.3616 282.88 869.3248 250.88 849.92 235.52a92.4672 92.4672 0 0 0-14.6944-7.0656c-4.5056-2.5088-5.12-4.7616-0.8192-7.7824a17.8688 17.8688 0 0 1 19.968-1.1264c18.8928 9.5232 26.0096 26.6752 24.2688 46.7968a44.2368 44.2368 0 0 1-33.6384 40.96 9.472 9.472 0 0 1-2.304 0.5632zM162.6624 766.2592a26.4192 26.4192 0 0 0 14.6432 26.112c3.84 1.9968 7.5776 4.1472 11.3152 6.2976 1.792 0.9728 3.9936 1.8432 3.6352 4.5056s-2.3552 3.8912-4.8128 4.7616a25.6 25.6 0 0 1-26.5728-6.5536c-15.36-13.7728-19.4048-31.3344-14.0288-50.8416a42.5472 42.5472 0 0 1 20.992-26.2656 42.3424 42.3424 0 0 1 55.9616 10.5472 27.4944 27.4944 0 0 1 3.6864 27.4944c-0.8704 2.3552-2.304 4.5568-5.12 4.1984s-2.816-2.7136-3.328-4.8128c-2.048-8.3968-4.8128-16.384-12.6976-21.2992a27.2896 27.2896 0 0 0-28.7744-1.2288 26.5216 26.5216 0 0 0-14.8992 24.6784zM832.2048 736.0512a24.832 24.832 0 0 0-24.1664 17.2032c-1.1264 3.1744-2.2528 6.3488-3.4816 9.472-0.6656 1.792-1.1264 3.9936-3.5328 4.0448s-3.7376-1.792-4.6592-3.6352a22.9376 22.9376 0 0 1 0-20.1216 38.0928 38.0928 0 0 1 23.3472-22.272 44.032 44.032 0 0 1 46.08 11.0592 48.5888 48.5888 0 0 1-0.5632 67.3792c-7.6288 7.1168-16.1792 12.1856-27.2896 9.0624-2.6624-0.7168-5.5808-1.4848-5.9904-4.7616s2.7136-4.3008 5.12-5.6832a103.7824 103.7824 0 0 0 15.8208-9.7792c10.752-9.4208 11.2128-28.2624 3.1744-39.7824a26.7264 26.7264 0 0 0-23.8592-12.1856zM189.44 308.3264c-23.04 1.5872-42.4448-20.0704-44.288-40.4992-1.6896-18.2272 3.2256-33.6896 17.9712-45.2096a22.5792 22.5792 0 0 1 25.6-2.8672c1.7408 1.1776 3.7888 2.1504 3.584 4.7104s-2.3552 2.8672-4.0448 3.6864a56.832 56.832 0 0 0-18.5344 10.8032c-8.3456 8.8576-9.728 26.6752-2.7136 38.9632a27.2384 27.2384 0 0 0 31.6416 12.1856c11.8272-3.2256 17.0496-12.1344 19.456-23.3984 0.6144-2.7648 0-7.0656 3.9936-7.168s4.7616 3.9424 5.7856 6.8608c4.7104 13.3632-3.072 29.7472-17.5616 37.2736a39.5776 39.5776 0 0 1-20.8896 4.6592zM254.0544 251.3408c-18.7904 1.4848-37.2224-17.1008-36.7616-36.5568a36.352 36.352 0 0 1 36.8128-36.8128 35.1744 35.1744 0 0 1 36.2496 35.84c0.3584 21.2992-17.408 38.9632-36.3008 37.5296z m-20.1728-35.3792c-1.28 13.056 9.9328 20.48 20.48 21.0944a21.6064 21.6064 0 0 0 20.48-20.48 20.8896 20.8896 0 0 0-19.8144-21.6576 20.48 20.48 0 0 0-21.1456 21.0432zM769.1264 251.3408c-18.7392 1.536-36.9664-17.8176-35.84-36.9664a36.4032 36.4032 0 1 1 35.84 36.9664z m-0.7168-56.32a20.736 20.736 0 0 0-20.48 20.48 22.016 22.016 0 0 0 20.48 21.4016 20.8384 20.8384 0 0 0 20.7872-20.8896 21.4016 21.4016 0 0 0-20.7872-20.992zM253.5424 860.8256c-18.688 1.2288-36.5056-16.896-36.352-35.84a36.5568 36.5568 0 1 1 73.0624 0 35.1744 35.1744 0 0 1-36.7104 35.84z m-19.6096-37.2736c-1.792 9.8816 10.24 21.2992 20.48 20.48a20.8384 20.8384 0 0 0 20.48-20.9408 21.6064 21.6064 0 0 0-23.04-20.1216 19.712 19.712 0 0 0-17.92 20.5824zM768.8704 860.8256c-19.3024 1.536-36.9664-18.0736-35.84-36.9152a36.4032 36.4032 0 0 1 72.8064 0c0.2048 20.8896-17.8176 38.4512-36.9664 36.9152z m-0.768-16.8448a20.1728 20.1728 0 0 0 21.248-20.0704 20.48 20.48 0 0 0-20.0192-20.992 21.9648 21.9648 0 0 0-21.248 19.6096 20.48 20.48 0 0 0 19.9168 21.4528z" fill="#143250" p-id="7559"></path><path d="M353.5872 518.2464c-8.3968 3.4304-17.152 4.7104-25.088 8.6016a161.8432 161.8432 0 0 0-27.4432 16.4864c-6.144 4.6592-9.1648 3.7376-12.3392-3.3792-3.6864-8.192-7.2704-16.5376-15.36-21.504-2.048-1.28-1.7408-2.816 0-4.352A43.6736 43.6736 0 0 0 286.72 492.4416c0.9728-3.9936 4.1984-4.4032 7.7312-3.2768a80.9984 80.9984 0 0 1 18.7904 10.5984 82.688 82.688 0 0 0 31.1296 14.336c3.3792 0.512 5.7856 3.3792 9.216 4.1472zM671.3344 519.0656a175.7184 175.7184 0 0 0 49.5104-26.1632 46.7968 46.7968 0 0 1 11.1104-4.352 3.4816 3.4816 0 0 1 5.12 2.3552c1.6384 3.84 3.584 7.5264 5.12 11.3664a26.1632 26.1632 0 0 0 6.8608 9.1136c3.6864 3.5328 3.6352 5.4272-0.3072 8.6016a38.0928 38.0928 0 0 0-12.2368 19.6608c-1.792 5.9392-3.2256 7.0656-8.9088 4.5056a147.968 147.968 0 0 1-17.152-9.5744 127.4368 127.4368 0 0 0-37.2224-14.8992zM538.0096 736.6144c0 3.4816-0.7168 5.12-2.9696 5.4272a36.8128 36.8128 0 0 0-21.1968 13.9776c-1.536 1.8432-2.816 2.2528-4.6592 0a40.96 40.96 0 0 0-19.3536-11.8784c-5.6832-1.6896-6.3488-3.6352-4.5056-9.3696a119.4496 119.4496 0 0 1 14.08-27.2384 58.112 58.112 0 0 0 9.8816-26.5728c0-1.0752 0-2.6624 1.3312-2.7648s1.9456 1.536 2.1504 2.7136a93.3376 93.3376 0 0 0 17.9712 39.2192 53.6064 53.6064 0 0 1 7.2704 16.4864zM510.72 362.0352c-1.1776-4.1472-2.0992-7.8336-3.2256-11.4176a101.9904 101.9904 0 0 0-12.8512-24.1152A126.464 126.464 0 0 1 484.9664 307.2c-1.9968-4.7616-0.768-6.4 4.1984-8.1408a42.496 42.496 0 0 0 20.0704-11.6736c1.8944-2.2528 3.2256-0.768 4.7104 0.6656a34.816 34.816 0 0 0 15.872 10.24 27.0848 27.0848 0 0 0 2.7648 0.6656c5.7344 0.6656 6.8608 2.0992 5.12 7.68a95.4368 95.4368 0 0 1-11.776 21.504 89.088 89.088 0 0 0-12.8 28.9792 8.4992 8.4992 0 0 1-2.2528 4.7104z" fill="#F09C85" p-id="7560"></path><path d="M565.1968 255.5392a26.4192 26.4192 0 0 1-14.1824 24.576 25.1392 25.1392 0 0 1-25.6-8.704 16.5888 16.5888 0 0 1-0.8704-16.1792 57.5488 57.5488 0 0 1 21.9648-28.5696c10.24-6.8608 20.1216-6.4 27.4432 3.7888 1.024 1.4336 2.2016 3.072 1.3312 5.12s-2.7648 1.2288-4.3008 1.3312a36.9664 36.9664 0 0 0-26.5216 10.5984 23.4496 23.4496 0 0 0-7.0144 17.3056 10.24 10.24 0 0 0 14.8992 9.3184 21.1456 21.1456 0 0 0 10.5984-13.6704c0.256-1.6896 0.256-3.4304 2.2528-4.9152zM459.8272 252.4672a30.72 30.72 0 0 0 4.7104 14.2848 14.1312 14.1312 0 0 0 14.0288 8.1408 9.216 9.216 0 0 0 8.2944-9.9328c-0.8704-16.64-12.288-27.3408-30.208-28.2624a6.7072 6.7072 0 0 1-1.4336 0c-2.4064-0.3584-5.888 1.3312-6.912-1.536s1.5872-5.12 3.4304-7.0144a19.0976 19.0976 0 0 1 25.6-1.536 58.4704 58.4704 0 0 1 22.6816 32.4608c2.7648 10.752-3.2768 18.176-14.2336 21.248-13.1584 3.7376-22.0672-5.12-25.6-16.4352-1.024-3.1232-3.6352-6.6048-0.3584-11.4176zM565.2992 776.6016a42.752 42.752 0 0 0-9.1648-10.7008 13.8752 13.8752 0 0 0-10.24-2.6624 9.4208 9.4208 0 0 0-8.5504 10.8544 22.1696 22.1696 0 0 0 14.8992 20.0192 29.0304 29.0304 0 0 0 16.0256 1.8432c1.6384-0.3584 3.7376-0.768 5.12 0.9728s0 3.4304-0.768 5.12c-4.096 8.0896-11.008 10.24-21.248 7.8336-11.1616-2.816-29.0304-24.9856-27.8016-37.0176a16.1792 16.1792 0 0 1 5.12-11.008 21.1456 21.1456 0 0 1 31.3344 2.4576 19.1488 19.1488 0 0 1 5.2736 12.288zM458.4448 775.5264a22.7328 22.7328 0 0 1 9.0624-15.36 22.016 22.016 0 0 1 31.9488 8.3968 15.872 15.872 0 0 1-1.9456 13.7216 59.4944 59.4944 0 0 1-16.6912 23.1936c-8.5504 6.8096-24.0128 8.3456-29.184-2.816-2.2528-4.8128-1.9456-5.7856 3.584-5.8368a32.8704 32.8704 0 0 0 22.6304-6.2464 21.5552 21.5552 0 0 0 9.0112-16.7424 10.24 10.24 0 0 0-12.6464-10.24 17.6128 17.6128 0 0 0-13.0048 9.5232c-0.4096 1.1264-0.4096 2.4576-2.7648 2.4064z" fill="#164261" p-id="7561"></path><path d="M811.6736 258.6112a17.9712 17.9712 0 0 1 30.2592-14.1824 24.0128 24.0128 0 0 1 7.68 11.4176c0.4608 1.4336 0.9216 3.1232-1.3824 3.072-8.4992 0-14.1824 5.12-20.1216 10.24-4.608 3.7376-10.24 3.7376-12.8512 0a18.6368 18.6368 0 0 1-3.584-10.5472zM211.9168 257.2288a17.7152 17.7152 0 0 1-1.6896 8.448 8.3968 8.3968 0 0 1-14.4384 2.9184 30.2592 30.2592 0 0 0-17.664-8.8576c-2.2528 0-4.096-1.0752-3.2768-4.0448 3.072-11.52 18.944-22.4768 31.3344-11.5712a15.7696 15.7696 0 0 1 5.7344 13.1072zM212.1728 768.8192c0 10.752-6.2976 17.664-15.6672 18.2784a22.0672 22.0672 0 0 1-21.5552-17.0496c-0.3584-2.8672 1.2288-3.3792 3.3792-3.2768a22.6816 22.6816 0 0 0 16.6912-7.1168c3.072-2.8672 6.3488-5.5296 11.0592-3.4816a11.1616 11.1616 0 0 1 5.9392 10.24c0.1024 0.9216 0.1024 1.8944 0.1536 2.4064zM811.52 768a17.5104 17.5104 0 0 1 1.8944-7.7312 9.0624 9.0624 0 0 1 14.7456-1.536 21.9136 21.9136 0 0 0 17.3056 7.8336c3.584-0.3072 4.5056 1.2288 3.2256 4.7104a22.1184 22.1184 0 0 1-15.0016 14.9504 17.3568 17.3568 0 0 1-22.1696-18.2272z" fill="#143250" p-id="7562"></path><path d="M841.6256 185.9584c0 7.936-10.24 20.48-18.1248 21.504-4.352 0.768-6.5024-0.6656-5.888-4.4544a31.0272 31.0272 0 0 1 8.6528-19.3536 15.36 15.36 0 0 1 7.9872-4.1472c5.4272-0.8192 7.424 0.9728 7.3728 6.4512zM841.8816 837.632c0 5.12-2.9184 7.2192-7.8336 6.4a18.9952 18.9952 0 0 1-12.1856-10.24 30.72 30.72 0 0 1-4.4032-13.1584c-0.512-3.8912 1.4336-5.12 5.12-4.7616a18.6368 18.6368 0 0 1 6.2464 2.4064 29.44 29.44 0 0 1 13.056 19.3536zM205.2608 200.2432c0.7168 7.0656-1.3312 8.9088-6.9632 6.2464-9.216-4.352-16.0256-11.1616-15.7696-21.4016 0-4.3008 2.304-6.0416 6.4512-5.6832a16.128 16.128 0 0 1 11.7248 8.3456 18.3808 18.3808 0 0 1 4.5568 12.4928zM182.5792 837.12a26.5728 26.5728 0 0 1 18.0224-20.992c3.1744-0.5632 5.12 0.3584 5.12 3.8912a30.2592 30.2592 0 0 1-10.24 21.4016 10.5984 10.5984 0 0 1-3.7376 2.048c-6.0416 2.2016-9.3184-0.256-9.1648-6.3488z" fill="#438497" p-id="7563"></path><path d="M456.8064 329.8816c-2.9696-2.2016-5.6832-4.352-8.5504-6.2464A97.792 97.792 0 0 0 394.752 307.2a89.6 89.6 0 0 0-91.6992 79.616 110.9504 110.9504 0 0 0 6.8096 58.112 3.3792 3.3792 0 0 1 0 3.584A37.376 37.376 0 0 1 302.08 436.7872c-10.496-20.0192-18.0224-40.96-16.896-64 1.2288-25.6 9.8816-48.1792 29.7472-65.5872 31.232-27.392 65.6896-27.648 101.8368-11.9808 15.36 6.656 27.2384 18.3808 38.4512 30.72a4.4544 4.4544 0 0 1 1.5872 3.9424zM711.3728 450.56a196.9152 196.9152 0 0 0 6.6048-20.9408 127.6416 127.6416 0 0 0 1.8432-42.5472 105.4208 105.4208 0 0 0-14.8992-40.2432 83.5584 83.5584 0 0 0-42.3424-33.8944 100.3008 100.3008 0 0 0-60.0576-2.6624 95.9488 95.9488 0 0 0-31.2832 15.36 14.336 14.336 0 0 1-1.28 0.7168 57.6512 57.6512 0 0 1 15.616-16.896 109.4144 109.4144 0 0 1 55.808-24.0128 81.5616 81.5616 0 0 1 70.8096 24.8832 92.16 92.16 0 0 1 25.6 65.536 124.2624 124.2624 0 0 1-15.36 59.9552 40.96 40.96 0 0 1-11.0592 14.7456zM572.416 713.1136c4.1472 2.4576 8.0896 5.12 12.3392 7.2704 31.6928 15.36 63.0272 15.36 93.6448-2.9184a88.32 88.32 0 0 0 34.6112-40.96c8.5504-18.4832 9.3184-37.9904 7.6288-57.6a71.0144 71.0144 0 0 0-6.656-27.5456 4.4032 4.4032 0 0 1 4.2496 2.7648c7.4752 14.9504 15.616 29.6448 18.5344 46.336 4.8128 27.648 0.9216 53.8112-16.2816 76.4928a82.8928 82.8928 0 0 1-66.2528 33.4848 104.8576 104.8576 0 0 1-61.44-17.5104 56.32 56.32 0 0 1-20.3776-19.8144zM450.56 713.8304a36.1472 36.1472 0 0 1-10.24 11.5712 107.52 107.52 0 0 1-53.6064 24.3712 90.0608 90.0608 0 0 1-45.0048-4.2496 83.7632 83.7632 0 0 1-48.2304-43.5712 90.4704 90.4704 0 0 1-7.6288-54.528 150.3744 150.3744 0 0 1 17.6128-49.152A8.5504 8.5504 0 0 1 307.2 593.92c0.8704 1.8944 0 3.5328-0.6144 5.12a108.288 108.288 0 0 0 3.6352 78.6432c13.056 29.4912 36.608 46.336 68.4544 52.4288 21.2992 4.0448 40.6016-1.28 59.6992-9.1648a93.5424 93.5424 0 0 0 12.1856-7.1168z" fill="#8EC4BE" p-id="7564"></path><path d="M628.736 646.5024a84.4288 84.4288 0 0 1 10.7008 20.0704c0.6144-8.448-3.1744-15.36-6.3488-23.1424 6.4 4.608 10.6496 11.4688 17.5616 15.36-3.2768-7.8336-9.6256-13.4144-14.3872-20.224 4.6592 1.4848 7.8336 5.12 12.2368 7.0144 0.8704 0.3584 1.5872 1.1264 2.4576 1.536s2.6624 2.4064 3.6864 0.8192-1.1776-2.2016-2.2016-2.9696c-3.3792-2.4576-6.8608-4.7616-10.24-7.2704-1.3312-1.024-3.0208-1.8944-3.2256-3.9424 1.3312-1.1264 2.5088 0 3.584 0.3072a30.72 30.72 0 0 0 27.8016 0 30.72 30.72 0 0 1 27.2384 0c11.3152 5.12 13.824 13.9776 9.5232 25.1392-6.2464 16.2304-19.2512 18.8928-34.7648 16.128a73.5232 73.5232 0 0 1-8.1408-2.8672c-1.28-0.3584-2.56-2.2016-3.84-0.9216s0 2.816 0.3584 4.1472a43.3664 43.3664 0 0 1 1.6384 14.2848 27.1872 27.1872 0 0 1-22.1184 27.136 13.7728 13.7728 0 0 1-15.36-5.9904 32.6656 32.6656 0 0 1-3.4816-32.1024l4.096-9.7792a26.0096 26.0096 0 0 0 2.2016-16.4352 6.8608 6.8608 0 0 1 1.024-6.2976zM389.632 642.816c-2.2016 7.3728-6.7584 13.6192-6.3488 21.6576 4.0448-5.888 5.9904-12.9536 10.24-18.4832a1.9456 1.9456 0 0 1 1.0752 2.6624c-2.6112 10.24 0.8192 18.944 5.12 27.648a36.2496 36.2496 0 0 1-0.7168 32.5632c-3.584 8.2432-15.36 10.7008-23.296 5.9904-13.9776-8.2944-18.4832-21.0944-14.7968-36.6592 0.512-2.2528 0.8704-4.608 1.536-7.9872a39.424 39.424 0 0 1-23.9616 5.632 26.6752 26.6752 0 0 1-24.7296-28.0064 12.0832 12.0832 0 0 1 4.7104-9.1648c8.8064-6.8608 18.8928-10.8032 29.5936-6.0928 11.8272 5.12 23.0912 6.8608 35.1232 0.8704a37.0688 37.0688 0 0 1-11.3664 10.24c-0.8192 0.5632-1.7408 0.9216-2.5088 1.4336s-2.2528 1.28-1.3312 2.56 1.7408 0 2.56 0a93.5424 93.5424 0 0 0 15.36-9.216c-2.9696 7.0656-9.8816 11.4688-12.8 19.456a180.224 180.224 0 0 0 16.5376-15.104zM394.24 392.6528c-5.4784-5.12-7.3216-12.032-11.0592-17.9712a26.3168 26.3168 0 0 0 2.0992 11.2128 61.44 61.44 0 0 1 5.12 11.0592c-3.072-1.024-4.352-3.4816-6.2976-5.12-0.9728-0.6656-1.6896-2.56-3.072-1.2288s0 2.3552 0.8192 3.4304 3.3792 2.9696 2.9696 6.4c-7.1168-4.1984-13.0048-10.24-21.3504-11.1616a67.328 67.328 0 0 0 9.4208 6.912 22.0672 22.0672 0 0 1 9.216 7.4752c-2.56 1.2288-4.3008-0.4608-5.7856-1.4336a28.928 28.928 0 0 0-29.7472-1.4336 30.72 30.72 0 0 1-26.0608-0.512 12.8 12.8 0 0 1-7.0144-11.8272 26.112 26.112 0 0 1 20.8896-26.368 32.768 32.768 0 0 1 23.7568 3.1232c1.0752 0.6144 2.2528 1.6384 3.5328 0.6656s0.4096-2.4064 0-3.6352a54.6816 54.6816 0 0 1-1.4336-17.1008 27.9552 27.9552 0 0 1 14.5408-21.9648 16.3328 16.3328 0 0 1 24.6272 7.2704 38.7584 38.7584 0 0 1 1.6384 30.72c-3.328 10.1888-9.728 19.5584-6.8096 31.488zM628.5312 394.752c-0.4096-1.6896-0.768-2.3552-0.6144-2.8672 2.4576-10.24-1.4848-19.2512-5.12-28.3648a38.8096 38.8096 0 0 1 0-30.72c5.888-13.7216 18.9952-15.9744 30.1056-5.6832s10.9568 22.1696 8.704 35.2256c-0.256 1.3312-1.8944 2.816-0.7168 3.9936s2.9184-0.512 4.2496-1.0752a33.1264 33.1264 0 0 1 29.7472-0.6144c9.2672 5.12 17.2544 16.7936 13.6192 28.672a13.4144 13.4144 0 0 1-7.8848 8.5504 26.112 26.112 0 0 1-23.1424 0 31.7952 31.7952 0 0 0-32.1024 1.6896c-0.7168 0.4096-1.3312 0.9216-1.9968 1.3312s-1.5872 0.6656-2.1504 0a1.1776 1.1776 0 0 1 0.512-1.6384c1.9456-1.1264 2.8672-3.2256 5.12-4.1472a24.7808 24.7808 0 0 0 11.4176-9.984c-7.8848 1.792-13.6704 7.4752-20.48 11.3664 1.9968-6.3488 8.4992-10.24 9.984-17.5104-6.5024 3.4304-8.2944 10.5984-14.2336 14.4384 0-4.2496 2.7136-6.4 3.5328-9.3184 0.4608-1.4848 1.7408-3.3792 0-4.352s-2.5088 1.4336-2.9696 2.7136a40.96 40.96 0 0 1-5.5808 8.2944z" fill="#F6BB96" p-id="7565"></path><path d="M612.5056 634.5216a73.0624 73.0624 0 0 1-27.2896 0c-20.48-4.4032-34.0992-17.8688-45.4656-34.56a151.0912 151.0912 0 0 1-15.9744-31.232 48.6912 48.6912 0 0 1-3.9424-18.688 35.84 35.84 0 0 0-1.7408-12.1344c4.3008 2.8672 3.4304 7.0656 5.12 9.8816 0.768 1.2288 0.5632 3.8912 2.7136 3.1744a4.0448 4.0448 0 0 0 2.7136-5.12c-0.9216-3.328-2.1504-6.5536-3.1744-10.24 1.8432 1.6896 3.584 3.4816 5.4784 5.12s4.2496 2.4576 6.0416 0.512 0-3.8912-1.024-5.632l-0.3072-0.3584c-0.8704-1.1776-3.5328-2.2016-2.2528-3.6352s2.6624 1.2288 4.1472 1.7408 1.9456 1.1264 3.0208 1.4848a3.3792 3.3792 0 0 0 4.3008-1.1264c1.1264-1.7408 0-3.1232-1.3312-4.096-2.7136-1.9456-5.4784-3.6864-8.6016-5.7344a6.4 6.4 0 0 1 5.5296 0.7168 9.2672 9.2672 0 0 0 7.4752 0 21.6576 21.6576 0 0 1 18.5856 0.3072c21.1456 8.1408 40.448 19.0464 53.76 38.0416a67.328 67.328 0 0 1 10.752 46.8992 13.0048 13.0048 0 0 1-1.024 2.8672 125.9008 125.9008 0 0 0-2.304-13.4656 58.0608 58.0608 0 0 0-21.248-31.232c-14.3872-11.2128-31.232-14.9504-48.9472-16.128-4.7104-0.3072-6.0416 1.5872-5.9904 6.0928a102.4 102.4 0 0 0 7.5776 39.9872 64.2048 64.2048 0 0 0 16.5376 22.7328 44.9024 44.9024 0 0 0 34.2528 12.1344 7.936 7.936 0 0 1 1.8944 0s0.256 1.0752 0.7168 1.6896zM471.4496 519.936c0.6656 6.0416 0.6656 6.0416 15.36 3.7888a25.2416 25.2416 0 0 1-6.8608 4.2496c-1.9968 1.2288-3.6864 3.2256-2.5088 5.632s3.6864 1.3824 5.5808 0.5632a40.6016 40.6016 0 0 0 5.12-2.9184 16.6912 16.6912 0 0 1 5.12-2.6112L486.4 537.2416c-1.3824 1.6384-2.2016 3.3792-0.4096 5.12s3.2256 0 4.7104-0.8704c2.5088-1.1776 3.072-4.4544 6.144-5.7856 0 4.096-3.584 7.0656-2.816 11.008 0.3072 1.6384-0.8704 4.0448 1.4336 4.5568s3.7376-1.536 4.5056-3.584 0.9728-6.0416 4.5568-8.8576a172.3904 172.3904 0 0 1-4.608 24.5248 139.9808 139.9808 0 0 1-25.6 46.6432 64.9728 64.9728 0 0 1-36.2496 24.8832 116.6848 116.6848 0 0 1-27.7504 0.4096c1.024-1.9968 2.0992-1.7408 2.9696-1.6896 21.0432 1.0752 35.0208-9.9328 45.5168-26.7264a84.6848 84.6848 0 0 0 11.8272-50.7392c0-2.9696-1.792-3.3792-4.1472-3.2768-18.688 0.8192-35.84 4.7616-51.2 17.3568a60.16 60.16 0 0 0-20.992 31.1296c-0.9216 3.584-1.3312 7.2704-1.9968 11.0592a6.4512 6.4512 0 0 1-1.4336-4.4544 69.12 69.12 0 0 1 21.9136-56.32 122.5728 122.5728 0 0 1 45.568-26.9312c4.2496-1.6896 9.1136-0.8704 13.1072-4.7616zM611.9424 403.456c-8.0384-2.56-15.36 0-22.8352 2.816a51.2 51.2 0 0 0-29.184 27.9552 71.2704 71.2704 0 0 0-8.3968 34.2528c0.3584 6.7584 0 7.168 6.8608 7.7312 21.4016 1.7408 41.4208-2.048 57.6512-17.0496a40.1408 40.1408 0 0 0 13.7216-27.904v-6.1952c1.3312 0 1.4336 0.7168 1.536 1.28a57.4976 57.4976 0 0 1-13.7216 47.0528c-15.36 17.0496-35.2256 24.9344-57.1392 29.0304a20.1216 20.1216 0 0 1-12.032 0 19.3536 19.3536 0 0 0-10.6496 0c1.7408-1.3824 3.5328-2.7136 5.12-4.096s2.1504-2.56 1.024-4.2496-2.816-1.3312-4.3008-0.5632c-2.8672 1.3824-5.632 2.9696-9.216 5.12a9.7792 9.7792 0 0 1 3.4304-5.632c1.7408-1.8944 3.6864-4.352 1.792-6.2976s-4.096 0.768-6.0928 1.8432c-3.0208 1.6384-3.6352 5.4272-7.2704 8.0384 1.6384-4.7616 2.9696-8.4992 4.096-12.288a11.9296 11.9296 0 0 0 0.6656-4.2496 3.072 3.072 0 0 0-2.7136-2.9696c-2.1504-0.3584-2.1504 1.3312-2.4576 2.7648a29.5936 29.5936 0 0 1-4.7104 12.1856 150.3232 150.3232 0 0 1 8.96-33.8432 120.5248 120.5248 0 0 1 30.1056-43.008 55.7568 55.7568 0 0 1 52.736-13.056l2.304 0.7168s0.4608 0.4096 0.7168 0.6144zM410.1632 403.3024a61.44 61.44 0 0 1 39.2192 1.7408 69.7344 69.7344 0 0 1 28.8256 23.2448 124.8256 124.8256 0 0 1 21.76 41.472 6.144 6.144 0 0 1-2.048 7.6288c-3.84 2.9184-1.2288 6.7584-0.6656 10.24 0.3072 1.9456 2.4064 3.4816 1.4336 6.144-3.0208-1.6384-4.352-4.7616-6.8608-6.6048-1.1264-0.8192-2.304-2.304-3.7888-1.3312s-0.5632 2.6624 0 3.8912c1.1776 2.2016 2.4576 4.352 4.1472 7.2704-3.6352-1.6896-6.4512-3.1232-9.3184-4.352a2.7136 2.7136 0 0 0-3.7888 0.9728c-0.8192 1.3824 0 2.3552 0.768 3.4816 1.792 3.1232 5.12 3.84 8.5504 5.8368a6.3488 6.3488 0 0 1-5.8368-0.4096 12.0832 12.0832 0 0 0-5.12-1.1776c-2.3552 0-5.12 0-6.1952 2.7136s2.8672 2.304 3.84 4.4544c-2.6112 0.512-5.12 0-5.7344-2.2528-0.9216-3.072-2.9184-3.328-5.12-3.584a128.9728 128.9728 0 0 1-41.984-14.4384c-19.3536-9.3184-33.792-36.1984-31.2832-57.3952 0-0.6144 0-1.28 1.5872-1.7408a47.8208 47.8208 0 0 0 26.0096 39.168 82.6368 82.6368 0 0 0 44.6976 8.6528c6.912-0.256 7.4752-1.024 7.5776-7.9872a70.8096 70.8096 0 0 0-13.2096-43.0592 48.2304 48.2304 0 0 0-37.1712-21.9648c-3.1232-0.1536-6.0928 1.6384-10.2912-0.6144z" fill="#BC4F5E" p-id="7566"></path><path d="M562.7392 559.3088c11.6224 0.9728 22.3744 3.584 30.72 12.8512a36.5056 36.5056 0 0 1 5.632 10.24 91.4944 91.4944 0 0 1 5.632 23.3472c0 1.8944 0.6656 4.2496-2.6624 3.6352a68.608 68.608 0 0 1-30.72-11.4176c-11.7248-9.2672-13.056-22.1696-13.1072-35.584-0.1536-2.6624 1.28-3.2256 4.5056-3.072zM464.1792 567.7056a48.896 48.896 0 0 1-2.6624 16.5376c-4.5568 13.5168-15.6672 18.944-28.1088 22.1696a96 96 0 0 1-11.1616 2.7648c-2.304 0.3072-4.5056 0.4096-3.9936-2.8672 2.048-13.2096 3.9424-26.5216 14.1312-36.5568 8.1408-7.9872 18.4832-9.6256 29.2352-10.24 1.792 0 2.56 1.024 2.56 2.7136zM567.6544 470.5792c-13.056 0-10.8544 0-9.472-10.5472 2.8672-20.9408 13.6704-29.5936 36.2496-33.2288a25.6 25.6 0 0 0 6.144-1.1264c3.0208-1.28 4.5568-0.4608 4.3008 3.1744a67.6864 67.6864 0 0 1-6.7584 25.9072c-6.4 12.288-17.3568 16.2816-30.464 15.8208zM456.0896 471.04c-13.1584 0-24.832-3.328-31.744-15.9744a67.4816 67.4816 0 0 1-6.5536-26.9824c0-1.8432 0.512-3.4816 2.7136-2.9184 8.0384 2.0992 16.4864 2.4064 24.1152 6.144a37.12 37.12 0 0 1 19.5584 36.352c-0.4096 3.3792-1.024 3.6352-8.0896 3.3792z" fill="#1F5175" p-id="7567"></path><path d="M500.5312 516.608a14.336 14.336 0 0 1 11.008-12.1856 12.3904 12.3904 0 0 1 10.9056 9.7792c0 8.448-3.6352 13.1072-10.24 13.056a11.9808 11.9808 0 0 1-11.6736-10.6496z" fill="#BC4F5E" p-id="7568"></path><path d="M367.1552 630.6816A43.264 43.264 0 0 1 348.16 624.128c-2.2016-1.3312-2.56-2.816 0-4.2496s3.5328-2.1504 5.12-3.072c5.12-2.6624 6.0928-2.5088 8.704 2.9696 1.9456 3.9936 4.352 4.6592 7.9872 2.3552a22.016 22.016 0 0 1 7.2192-3.7376c2.9184-0.6656 4.1984 0.4096 3.7888 3.5328-0.7168 5.9392-4.6592 8.704-13.824 8.7552zM363.52 405.5552c6.4 0.4608 12.9536 0.6144 16.5376 7.3216 0.9216 1.6896 2.2016 3.6864 0.6656 5.12s-3.7888 0-5.4784-0.9728-2.3552-1.6384-3.5328-2.4576c-4.6592-3.1744-6.1952-3.072-9.5232 1.3824-1.9968 2.7136-3.8912 3.4304-6.8096 1.4336a65.4848 65.4848 0 0 0-6.7072-3.6864c-3.2768-1.6896-2.3552-3.4304 0-4.7616a26.88 26.88 0 0 1 14.848-3.3792zM660.736 406.272a20.9408 20.9408 0 0 1 11.52 2.304c4.0448 2.304 4.2496 3.584 0.512 6.6048a33.6384 33.6384 0 0 1-5.12 2.816 4.1984 4.1984 0 0 1-6.4512-1.536c-3.4304-5.12-5.12-5.12-9.5744-1.1264a30.72 30.72 0 0 1-5.12 3.6864c-1.536 0.768-3.5328 1.536-5.12 0s-0.3072-3.3792 0.6656-5.12a14.592 14.592 0 0 1 14.336-7.8336c1.3312 0.3072 2.304 0.2048 4.352 0.2048zM654.7456 629.76c-5.12-0.3072-10.8544 0-13.0048-6.5024-0.512-1.6384-1.4336-3.5328 0.3072-5.12s3.4304-0.3584 5.12 0.512a72.1408 72.1408 0 0 1 7.2192 4.6592c2.1504 1.6384 3.4304 1.2288 4.352-1.1264l1.3824-3.584c1.4848-3.7888 3.9424-4.8128 7.5264-2.6624a32.8704 32.8704 0 0 1 2.8672 1.7408c1.6896 1.1264 4.5568 1.3824 4.6592 3.6352s-2.7648 3.2768-4.6592 4.2496a28.2112 28.2112 0 0 1-15.7696 4.1984zM621.6192 646.144a14.848 14.848 0 0 1-11.3152 19.456c-1.4336 0.4096-2.1504 0-2.2016-1.6384 0-4.4032 0-8.8576 4.6592-11.2128a39.424 39.424 0 0 0 8.8576-6.6048zM413.4912 378.88c0.8704 4.5056-3.0208 7.0144-6.8608 9.472-2.048 1.3312-3.7888 5.12-5.7856 4.0448s0-5.12 0-7.5264a11.4176 11.4176 0 0 1 8.0896-10.24c3.84-1.4336 4.864-0.6144 4.5568 4.2496zM608.3584 378.0608c0-4.4032 1.1264-5.12 5.12-3.2256a15.36 15.36 0 0 1 8.8576 14.7968c0 1.1776 0 2.304-1.8944 1.9456a23.04 23.04 0 0 1-12.0832-13.5168zM400.8448 647.4752c2.8672 1.6896 5.6832 3.3792 8.4992 5.12a11.9296 11.9296 0 0 1 4.608 10.496c0 2.5088-1.5872 1.7408-2.9696 1.4848-8.8576-1.8432-12.3392-7.68-10.1376-17.1008zM615.2192 675.2768c0 4.2496-3.328 10.24-5.8368 10.24s-1.9456-2.4064-1.9968-3.8912c-0.3072-5.9904 1.6384-9.6256 5.12-9.5232 2.1504 0.2048 2.6112 1.8432 2.7136 3.1744zM415.0272 680.96c-0.3072 1.4848 0.7168 3.9936-1.4336 4.4032s-3.3792-1.536-4.2496-3.2768a26.7776 26.7776 0 0 1-1.792-5.12c-0.512-1.8944-0.8704-3.9936 1.4848-5.12s3.9424 0.5632 5.12 2.5088a12.5952 12.5952 0 0 1 0.8704 6.6048z" fill="#A2485B" p-id="7569"></path></svg>